G04 #@! TF.GenerationSoftware,KiCad,Pcbnew,(5.1.2-1)-1*
G04 #@! TF.CreationDate,2019-08-29T21:11:54-07:00*
G04 #@! TF.ProjectId,kicad,6b696361-642e-46b6-9963-61645f706362,rev?*
G04 #@! TF.SameCoordinates,Original*
G04 #@! TF.FileFunction,Legend,Top*
G04 #@! TF.FilePolarity,Positive*
%FSLAX46Y46*%
G04 Gerber Fmt 4.6, Leading zero omitted, Abs format (unit mm)*
G04 Created by KiCad (PCBNEW (5.1.2-1)-1) date 2019-08-29 21:11:54*
%MOMM*%
%LPD*%
G04 APERTURE LIST*
%ADD10C,0.150000*%
%ADD11C,0.120000*%
G04 APERTURE END LIST*
D10*
X140685809Y-66222571D02*
X140352476Y-66222571D01*
X140352476Y-66746380D02*
X140352476Y-65746380D01*
X140828666Y-65746380D01*
X141352476Y-66746380D02*
X141257238Y-66698761D01*
X141209619Y-66651142D01*
X141162000Y-66555904D01*
X141162000Y-66270190D01*
X141209619Y-66174952D01*
X141257238Y-66127333D01*
X141352476Y-66079714D01*
X141495333Y-66079714D01*
X141590571Y-66127333D01*
X141638190Y-66174952D01*
X141685809Y-66270190D01*
X141685809Y-66555904D01*
X141638190Y-66651142D01*
X141590571Y-66698761D01*
X141495333Y-66746380D01*
X141352476Y-66746380D01*
X142114380Y-66746380D02*
X142114380Y-66079714D01*
X142114380Y-66270190D02*
X142162000Y-66174952D01*
X142209619Y-66127333D01*
X142304857Y-66079714D01*
X142400095Y-66079714D01*
X143923904Y-66079714D02*
X143923904Y-66746380D01*
X143495333Y-66079714D02*
X143495333Y-66603523D01*
X143542952Y-66698761D01*
X143638190Y-66746380D01*
X143781047Y-66746380D01*
X143876285Y-66698761D01*
X143923904Y-66651142D01*
X144352476Y-66698761D02*
X144447714Y-66746380D01*
X144638190Y-66746380D01*
X144733428Y-66698761D01*
X144781047Y-66603523D01*
X144781047Y-66555904D01*
X144733428Y-66460666D01*
X144638190Y-66413047D01*
X144495333Y-66413047D01*
X144400095Y-66365428D01*
X144352476Y-66270190D01*
X144352476Y-66222571D01*
X144400095Y-66127333D01*
X144495333Y-66079714D01*
X144638190Y-66079714D01*
X144733428Y-66127333D01*
X145590571Y-66698761D02*
X145495333Y-66746380D01*
X145304857Y-66746380D01*
X145209619Y-66698761D01*
X145162000Y-66603523D01*
X145162000Y-66222571D01*
X145209619Y-66127333D01*
X145304857Y-66079714D01*
X145495333Y-66079714D01*
X145590571Y-66127333D01*
X145638190Y-66222571D01*
X145638190Y-66317809D01*
X145162000Y-66413047D01*
X146733428Y-66079714D02*
X146923904Y-66746380D01*
X147114380Y-66270190D01*
X147304857Y-66746380D01*
X147495333Y-66079714D01*
X147876285Y-66746380D02*
X147876285Y-66079714D01*
X147876285Y-65746380D02*
X147828666Y-65794000D01*
X147876285Y-65841619D01*
X147923904Y-65794000D01*
X147876285Y-65746380D01*
X147876285Y-65841619D01*
X148209619Y-66079714D02*
X148590571Y-66079714D01*
X148352476Y-65746380D02*
X148352476Y-66603523D01*
X148400095Y-66698761D01*
X148495333Y-66746380D01*
X148590571Y-66746380D01*
X148923904Y-66746380D02*
X148923904Y-65746380D01*
X149352476Y-66746380D02*
X149352476Y-66222571D01*
X149304857Y-66127333D01*
X149209619Y-66079714D01*
X149066761Y-66079714D01*
X148971523Y-66127333D01*
X148923904Y-66174952D01*
X150542952Y-65841619D02*
X150590571Y-65794000D01*
X150685809Y-65746380D01*
X150923904Y-65746380D01*
X151019142Y-65794000D01*
X151066761Y-65841619D01*
X151114380Y-65936857D01*
X151114380Y-66032095D01*
X151066761Y-66174952D01*
X150495333Y-66746380D01*
X151114380Y-66746380D01*
X152019142Y-65746380D02*
X151542952Y-65746380D01*
X151495333Y-66222571D01*
X151542952Y-66174952D01*
X151638190Y-66127333D01*
X151876285Y-66127333D01*
X151971523Y-66174952D01*
X152019142Y-66222571D01*
X152066761Y-66317809D01*
X152066761Y-66555904D01*
X152019142Y-66651142D01*
X151971523Y-66698761D01*
X151876285Y-66746380D01*
X151638190Y-66746380D01*
X151542952Y-66698761D01*
X151495333Y-66651142D01*
X152923904Y-65746380D02*
X152733428Y-65746380D01*
X152638190Y-65794000D01*
X152590571Y-65841619D01*
X152495333Y-65984476D01*
X152447714Y-66174952D01*
X152447714Y-66555904D01*
X152495333Y-66651142D01*
X152542952Y-66698761D01*
X152638190Y-66746380D01*
X152828666Y-66746380D01*
X152923904Y-66698761D01*
X152971523Y-66651142D01*
X153019142Y-66555904D01*
X153019142Y-66317809D01*
X152971523Y-66222571D01*
X152923904Y-66174952D01*
X152828666Y-66127333D01*
X152638190Y-66127333D01*
X152542952Y-66174952D01*
X152495333Y-66222571D01*
X152447714Y-66317809D01*
X153447714Y-66746380D02*
X153447714Y-65746380D01*
X154019142Y-66746380D02*
X153590571Y-66174952D01*
X154019142Y-65746380D02*
X153447714Y-66317809D01*
X155162000Y-66460666D02*
X155638190Y-66460666D01*
X155066761Y-66746380D02*
X155400095Y-65746380D01*
X155733428Y-66746380D01*
X155923904Y-65746380D02*
X156495333Y-65746380D01*
X156209619Y-66746380D02*
X156209619Y-65746380D01*
X156781047Y-65841619D02*
X156828666Y-65794000D01*
X156923904Y-65746380D01*
X157162000Y-65746380D01*
X157257238Y-65794000D01*
X157304857Y-65841619D01*
X157352476Y-65936857D01*
X157352476Y-66032095D01*
X157304857Y-66174952D01*
X156733428Y-66746380D01*
X157352476Y-66746380D01*
X157923904Y-66174952D02*
X157828666Y-66127333D01*
X157781047Y-66079714D01*
X157733428Y-65984476D01*
X157733428Y-65936857D01*
X157781047Y-65841619D01*
X157828666Y-65794000D01*
X157923904Y-65746380D01*
X158114380Y-65746380D01*
X158209619Y-65794000D01*
X158257238Y-65841619D01*
X158304857Y-65936857D01*
X158304857Y-65984476D01*
X158257238Y-66079714D01*
X158209619Y-66127333D01*
X158114380Y-66174952D01*
X157923904Y-66174952D01*
X157828666Y-66222571D01*
X157781047Y-66270190D01*
X157733428Y-66365428D01*
X157733428Y-66555904D01*
X157781047Y-66651142D01*
X157828666Y-66698761D01*
X157923904Y-66746380D01*
X158114380Y-66746380D01*
X158209619Y-66698761D01*
X158257238Y-66651142D01*
X158304857Y-66555904D01*
X158304857Y-66365428D01*
X158257238Y-66270190D01*
X158209619Y-66222571D01*
X158114380Y-66174952D01*
X159304857Y-66651142D02*
X159257238Y-66698761D01*
X159114380Y-66746380D01*
X159019142Y-66746380D01*
X158876285Y-66698761D01*
X158781047Y-66603523D01*
X158733428Y-66508285D01*
X158685809Y-66317809D01*
X158685809Y-66174952D01*
X158733428Y-65984476D01*
X158781047Y-65889238D01*
X158876285Y-65794000D01*
X159019142Y-65746380D01*
X159114380Y-65746380D01*
X159257238Y-65794000D01*
X159304857Y-65841619D01*
X159685809Y-65841619D02*
X159733428Y-65794000D01*
X159828666Y-65746380D01*
X160066761Y-65746380D01*
X160162000Y-65794000D01*
X160209619Y-65841619D01*
X160257238Y-65936857D01*
X160257238Y-66032095D01*
X160209619Y-66174952D01*
X159638190Y-66746380D01*
X160257238Y-66746380D01*
X161162000Y-65746380D02*
X160685809Y-65746380D01*
X160638190Y-66222571D01*
X160685809Y-66174952D01*
X160781047Y-66127333D01*
X161019142Y-66127333D01*
X161114380Y-66174952D01*
X161162000Y-66222571D01*
X161209619Y-66317809D01*
X161209619Y-66555904D01*
X161162000Y-66651142D01*
X161114380Y-66698761D01*
X161019142Y-66746380D01*
X160781047Y-66746380D01*
X160685809Y-66698761D01*
X160638190Y-66651142D01*
X162066761Y-65746380D02*
X161876285Y-65746380D01*
X161781047Y-65794000D01*
X161733428Y-65841619D01*
X161638190Y-65984476D01*
X161590571Y-66174952D01*
X161590571Y-66555904D01*
X161638190Y-66651142D01*
X161685809Y-66698761D01*
X161781047Y-66746380D01*
X161971523Y-66746380D01*
X162066761Y-66698761D01*
X162114380Y-66651142D01*
X162162000Y-66555904D01*
X162162000Y-66317809D01*
X162114380Y-66222571D01*
X162066761Y-66174952D01*
X161971523Y-66127333D01*
X161781047Y-66127333D01*
X161685809Y-66174952D01*
X161638190Y-66222571D01*
X161590571Y-66317809D01*
X163495333Y-66746380D02*
X163400095Y-66698761D01*
X163352476Y-66651142D01*
X163304857Y-66555904D01*
X163304857Y-66270190D01*
X163352476Y-66174952D01*
X163400095Y-66127333D01*
X163495333Y-66079714D01*
X163638190Y-66079714D01*
X163733428Y-66127333D01*
X163781047Y-66174952D01*
X163828666Y-66270190D01*
X163828666Y-66555904D01*
X163781047Y-66651142D01*
X163733428Y-66698761D01*
X163638190Y-66746380D01*
X163495333Y-66746380D01*
X164257238Y-66079714D02*
X164257238Y-66746380D01*
X164257238Y-66174952D02*
X164304857Y-66127333D01*
X164400095Y-66079714D01*
X164542952Y-66079714D01*
X164638190Y-66127333D01*
X164685809Y-66222571D01*
X164685809Y-66746380D01*
X165304857Y-66746380D02*
X165209619Y-66698761D01*
X165162000Y-66603523D01*
X165162000Y-65746380D01*
X165590571Y-66079714D02*
X165828666Y-66746380D01*
X166066761Y-66079714D02*
X165828666Y-66746380D01*
X165733428Y-66984476D01*
X165685809Y-67032095D01*
X165590571Y-67079714D01*
X179975523Y-66222571D02*
X180308857Y-66222571D01*
X180451714Y-66746380D02*
X179975523Y-66746380D01*
X179975523Y-65746380D01*
X180451714Y-65746380D01*
X180880285Y-66222571D02*
X181213619Y-66222571D01*
X181356476Y-66746380D02*
X180880285Y-66746380D01*
X180880285Y-65746380D01*
X181356476Y-65746380D01*
X181785047Y-66746380D02*
X181785047Y-65746380D01*
X182166000Y-65746380D01*
X182261238Y-65794000D01*
X182308857Y-65841619D01*
X182356476Y-65936857D01*
X182356476Y-66079714D01*
X182308857Y-66174952D01*
X182261238Y-66222571D01*
X182166000Y-66270190D01*
X181785047Y-66270190D01*
X183356476Y-66746380D02*
X183023142Y-66270190D01*
X182785047Y-66746380D02*
X182785047Y-65746380D01*
X183166000Y-65746380D01*
X183261238Y-65794000D01*
X183308857Y-65841619D01*
X183356476Y-65936857D01*
X183356476Y-66079714D01*
X183308857Y-66174952D01*
X183261238Y-66222571D01*
X183166000Y-66270190D01*
X182785047Y-66270190D01*
X183975523Y-65746380D02*
X184166000Y-65746380D01*
X184261238Y-65794000D01*
X184356476Y-65889238D01*
X184404095Y-66079714D01*
X184404095Y-66413047D01*
X184356476Y-66603523D01*
X184261238Y-66698761D01*
X184166000Y-66746380D01*
X183975523Y-66746380D01*
X183880285Y-66698761D01*
X183785047Y-66603523D01*
X183737428Y-66413047D01*
X183737428Y-66079714D01*
X183785047Y-65889238D01*
X183880285Y-65794000D01*
X183975523Y-65746380D01*
X184832666Y-66746380D02*
X184832666Y-65746380D01*
X185166000Y-66460666D01*
X185499333Y-65746380D01*
X185499333Y-66746380D01*
X186737428Y-66746380D02*
X186737428Y-65746380D01*
X187118380Y-65746380D01*
X187213619Y-65794000D01*
X187261238Y-65841619D01*
X187308857Y-65936857D01*
X187308857Y-66079714D01*
X187261238Y-66174952D01*
X187213619Y-66222571D01*
X187118380Y-66270190D01*
X186737428Y-66270190D01*
X187737428Y-66746380D02*
X187737428Y-66079714D01*
X187737428Y-65746380D02*
X187689809Y-65794000D01*
X187737428Y-65841619D01*
X187785047Y-65794000D01*
X187737428Y-65746380D01*
X187737428Y-65841619D01*
X188213619Y-66079714D02*
X188213619Y-66746380D01*
X188213619Y-66174952D02*
X188261238Y-66127333D01*
X188356476Y-66079714D01*
X188499333Y-66079714D01*
X188594571Y-66127333D01*
X188642190Y-66222571D01*
X188642190Y-66746380D01*
X190404095Y-66746380D02*
X189832666Y-66746380D01*
X190118380Y-66746380D02*
X190118380Y-65746380D01*
X190023142Y-65889238D01*
X189927904Y-65984476D01*
X189832666Y-66032095D01*
D11*
X191770000Y-67056000D02*
X191008000Y-67564000D01*
X191770000Y-67056000D02*
X191008000Y-66548000D01*
X191770000Y-67056000D02*
X179832000Y-67056000D01*
X191770000Y-65786000D02*
X191770000Y-68202000D01*
D10*
X132843476Y-104640571D02*
X133176809Y-104640571D01*
X133319666Y-105164380D02*
X132843476Y-105164380D01*
X132843476Y-104164380D01*
X133319666Y-104164380D01*
X133748238Y-104640571D02*
X134081571Y-104640571D01*
X134224428Y-105164380D02*
X133748238Y-105164380D01*
X133748238Y-104164380D01*
X134224428Y-104164380D01*
X134653000Y-105164380D02*
X134653000Y-104164380D01*
X135033952Y-104164380D01*
X135129190Y-104212000D01*
X135176809Y-104259619D01*
X135224428Y-104354857D01*
X135224428Y-104497714D01*
X135176809Y-104592952D01*
X135129190Y-104640571D01*
X135033952Y-104688190D01*
X134653000Y-104688190D01*
X136224428Y-105164380D02*
X135891095Y-104688190D01*
X135653000Y-105164380D02*
X135653000Y-104164380D01*
X136033952Y-104164380D01*
X136129190Y-104212000D01*
X136176809Y-104259619D01*
X136224428Y-104354857D01*
X136224428Y-104497714D01*
X136176809Y-104592952D01*
X136129190Y-104640571D01*
X136033952Y-104688190D01*
X135653000Y-104688190D01*
X136843476Y-104164380D02*
X137033952Y-104164380D01*
X137129190Y-104212000D01*
X137224428Y-104307238D01*
X137272047Y-104497714D01*
X137272047Y-104831047D01*
X137224428Y-105021523D01*
X137129190Y-105116761D01*
X137033952Y-105164380D01*
X136843476Y-105164380D01*
X136748238Y-105116761D01*
X136653000Y-105021523D01*
X136605380Y-104831047D01*
X136605380Y-104497714D01*
X136653000Y-104307238D01*
X136748238Y-104212000D01*
X136843476Y-104164380D01*
X137700619Y-105164380D02*
X137700619Y-104164380D01*
X138033952Y-104878666D01*
X138367285Y-104164380D01*
X138367285Y-105164380D01*
X139605380Y-105164380D02*
X139605380Y-104164380D01*
X139986333Y-104164380D01*
X140081571Y-104212000D01*
X140129190Y-104259619D01*
X140176809Y-104354857D01*
X140176809Y-104497714D01*
X140129190Y-104592952D01*
X140081571Y-104640571D01*
X139986333Y-104688190D01*
X139605380Y-104688190D01*
X140605380Y-105164380D02*
X140605380Y-104497714D01*
X140605380Y-104688190D02*
X140653000Y-104592952D01*
X140700619Y-104545333D01*
X140795857Y-104497714D01*
X140891095Y-104497714D01*
X141367285Y-105164380D02*
X141272047Y-105116761D01*
X141224428Y-105069142D01*
X141176809Y-104973904D01*
X141176809Y-104688190D01*
X141224428Y-104592952D01*
X141272047Y-104545333D01*
X141367285Y-104497714D01*
X141510142Y-104497714D01*
X141605380Y-104545333D01*
X141653000Y-104592952D01*
X141700619Y-104688190D01*
X141700619Y-104973904D01*
X141653000Y-105069142D01*
X141605380Y-105116761D01*
X141510142Y-105164380D01*
X141367285Y-105164380D01*
X142557761Y-104497714D02*
X142557761Y-105307238D01*
X142510142Y-105402476D01*
X142462523Y-105450095D01*
X142367285Y-105497714D01*
X142224428Y-105497714D01*
X142129190Y-105450095D01*
X142557761Y-105116761D02*
X142462523Y-105164380D01*
X142272047Y-105164380D01*
X142176809Y-105116761D01*
X142129190Y-105069142D01*
X142081571Y-104973904D01*
X142081571Y-104688190D01*
X142129190Y-104592952D01*
X142176809Y-104545333D01*
X142272047Y-104497714D01*
X142462523Y-104497714D01*
X142557761Y-104545333D01*
X143033952Y-105164380D02*
X143033952Y-104497714D01*
X143033952Y-104688190D02*
X143081571Y-104592952D01*
X143129190Y-104545333D01*
X143224428Y-104497714D01*
X143319666Y-104497714D01*
X144081571Y-105164380D02*
X144081571Y-104640571D01*
X144033952Y-104545333D01*
X143938714Y-104497714D01*
X143748238Y-104497714D01*
X143653000Y-104545333D01*
X144081571Y-105116761D02*
X143986333Y-105164380D01*
X143748238Y-105164380D01*
X143653000Y-105116761D01*
X143605380Y-105021523D01*
X143605380Y-104926285D01*
X143653000Y-104831047D01*
X143748238Y-104783428D01*
X143986333Y-104783428D01*
X144081571Y-104735809D01*
X144557761Y-105164380D02*
X144557761Y-104497714D01*
X144557761Y-104592952D02*
X144605380Y-104545333D01*
X144700619Y-104497714D01*
X144843476Y-104497714D01*
X144938714Y-104545333D01*
X144986333Y-104640571D01*
X144986333Y-105164380D01*
X144986333Y-104640571D02*
X145033952Y-104545333D01*
X145129190Y-104497714D01*
X145272047Y-104497714D01*
X145367285Y-104545333D01*
X145414904Y-104640571D01*
X145414904Y-105164380D01*
X145891095Y-105164380D02*
X145891095Y-104497714D01*
X145891095Y-104592952D02*
X145938714Y-104545333D01*
X146033952Y-104497714D01*
X146176809Y-104497714D01*
X146272047Y-104545333D01*
X146319666Y-104640571D01*
X146319666Y-105164380D01*
X146319666Y-104640571D02*
X146367285Y-104545333D01*
X146462523Y-104497714D01*
X146605380Y-104497714D01*
X146700619Y-104545333D01*
X146748238Y-104640571D01*
X146748238Y-105164380D01*
X147605380Y-105116761D02*
X147510142Y-105164380D01*
X147319666Y-105164380D01*
X147224428Y-105116761D01*
X147176809Y-105021523D01*
X147176809Y-104640571D01*
X147224428Y-104545333D01*
X147319666Y-104497714D01*
X147510142Y-104497714D01*
X147605380Y-104545333D01*
X147653000Y-104640571D01*
X147653000Y-104735809D01*
X147176809Y-104831047D01*
X148081571Y-105164380D02*
X148081571Y-104497714D01*
X148081571Y-104688190D02*
X148129190Y-104592952D01*
X148176809Y-104545333D01*
X148272047Y-104497714D01*
X148367285Y-104497714D01*
X149414904Y-105116761D02*
X149557761Y-105164380D01*
X149795857Y-105164380D01*
X149891095Y-105116761D01*
X149938714Y-105069142D01*
X149986333Y-104973904D01*
X149986333Y-104878666D01*
X149938714Y-104783428D01*
X149891095Y-104735809D01*
X149795857Y-104688190D01*
X149605380Y-104640571D01*
X149510142Y-104592952D01*
X149462523Y-104545333D01*
X149414904Y-104450095D01*
X149414904Y-104354857D01*
X149462523Y-104259619D01*
X149510142Y-104212000D01*
X149605380Y-104164380D01*
X149843476Y-104164380D01*
X149986333Y-104212000D01*
X150414904Y-105164380D02*
X150414904Y-104164380D01*
X150843476Y-105164380D02*
X150843476Y-104640571D01*
X150795857Y-104545333D01*
X150700619Y-104497714D01*
X150557761Y-104497714D01*
X150462523Y-104545333D01*
X150414904Y-104592952D01*
X151319666Y-105164380D02*
X151319666Y-104497714D01*
X151319666Y-104164380D02*
X151272047Y-104212000D01*
X151319666Y-104259619D01*
X151367285Y-104212000D01*
X151319666Y-104164380D01*
X151319666Y-104259619D01*
X152176809Y-105116761D02*
X152081571Y-105164380D01*
X151891095Y-105164380D01*
X151795857Y-105116761D01*
X151748238Y-105021523D01*
X151748238Y-104640571D01*
X151795857Y-104545333D01*
X151891095Y-104497714D01*
X152081571Y-104497714D01*
X152176809Y-104545333D01*
X152224428Y-104640571D01*
X152224428Y-104735809D01*
X151748238Y-104831047D01*
X152795857Y-105164380D02*
X152700619Y-105116761D01*
X152653000Y-105021523D01*
X152653000Y-104164380D01*
X153605380Y-105164380D02*
X153605380Y-104164380D01*
X153605380Y-105116761D02*
X153510142Y-105164380D01*
X153319666Y-105164380D01*
X153224428Y-105116761D01*
X153176809Y-105069142D01*
X153129190Y-104973904D01*
X153129190Y-104688190D01*
X153176809Y-104592952D01*
X153224428Y-104545333D01*
X153319666Y-104497714D01*
X153510142Y-104497714D01*
X153605380Y-104545333D01*
X154700619Y-104497714D02*
X155081571Y-104497714D01*
X154843476Y-105164380D02*
X154843476Y-104307238D01*
X154891095Y-104212000D01*
X154986333Y-104164380D01*
X155081571Y-104164380D01*
X155557761Y-105164380D02*
X155462523Y-105116761D01*
X155414904Y-105069142D01*
X155367285Y-104973904D01*
X155367285Y-104688190D01*
X155414904Y-104592952D01*
X155462523Y-104545333D01*
X155557761Y-104497714D01*
X155700619Y-104497714D01*
X155795857Y-104545333D01*
X155843476Y-104592952D01*
X155891095Y-104688190D01*
X155891095Y-104973904D01*
X155843476Y-105069142D01*
X155795857Y-105116761D01*
X155700619Y-105164380D01*
X155557761Y-105164380D01*
X156319666Y-105164380D02*
X156319666Y-104497714D01*
X156319666Y-104688190D02*
X156367285Y-104592952D01*
X156414904Y-104545333D01*
X156510142Y-104497714D01*
X156605380Y-104497714D01*
X138748238Y-106528666D02*
X139224428Y-106528666D01*
X138653000Y-106814380D02*
X138986333Y-105814380D01*
X139319666Y-106814380D01*
X139653000Y-106814380D02*
X139653000Y-106147714D01*
X139653000Y-106338190D02*
X139700619Y-106242952D01*
X139748238Y-106195333D01*
X139843476Y-106147714D01*
X139938714Y-106147714D01*
X140700619Y-106814380D02*
X140700619Y-105814380D01*
X140700619Y-106766761D02*
X140605380Y-106814380D01*
X140414904Y-106814380D01*
X140319666Y-106766761D01*
X140272047Y-106719142D01*
X140224428Y-106623904D01*
X140224428Y-106338190D01*
X140272047Y-106242952D01*
X140319666Y-106195333D01*
X140414904Y-106147714D01*
X140605380Y-106147714D01*
X140700619Y-106195333D01*
X141605380Y-106147714D02*
X141605380Y-106814380D01*
X141176809Y-106147714D02*
X141176809Y-106671523D01*
X141224428Y-106766761D01*
X141319666Y-106814380D01*
X141462523Y-106814380D01*
X141557761Y-106766761D01*
X141605380Y-106719142D01*
X142081571Y-106814380D02*
X142081571Y-106147714D01*
X142081571Y-105814380D02*
X142033952Y-105862000D01*
X142081571Y-105909619D01*
X142129190Y-105862000D01*
X142081571Y-105814380D01*
X142081571Y-105909619D01*
X142557761Y-106147714D02*
X142557761Y-106814380D01*
X142557761Y-106242952D02*
X142605380Y-106195333D01*
X142700619Y-106147714D01*
X142843476Y-106147714D01*
X142938714Y-106195333D01*
X142986333Y-106290571D01*
X142986333Y-106814380D01*
X143605380Y-106814380D02*
X143510142Y-106766761D01*
X143462523Y-106719142D01*
X143414904Y-106623904D01*
X143414904Y-106338190D01*
X143462523Y-106242952D01*
X143510142Y-106195333D01*
X143605380Y-106147714D01*
X143748238Y-106147714D01*
X143843476Y-106195333D01*
X143891095Y-106242952D01*
X143938714Y-106338190D01*
X143938714Y-106623904D01*
X143891095Y-106719142D01*
X143843476Y-106766761D01*
X143748238Y-106814380D01*
X143605380Y-106814380D01*
X145129190Y-105814380D02*
X145129190Y-106623904D01*
X145176809Y-106719142D01*
X145224428Y-106766761D01*
X145319666Y-106814380D01*
X145510142Y-106814380D01*
X145605380Y-106766761D01*
X145653000Y-106719142D01*
X145700619Y-106623904D01*
X145700619Y-105814380D01*
X146176809Y-106814380D02*
X146176809Y-105814380D01*
X146748238Y-106814380D01*
X146748238Y-105814380D01*
X147414904Y-105814380D02*
X147605380Y-105814380D01*
X147700619Y-105862000D01*
X147795857Y-105957238D01*
X147843476Y-106147714D01*
X147843476Y-106481047D01*
X147795857Y-106671523D01*
X147700619Y-106766761D01*
X147605380Y-106814380D01*
X147414904Y-106814380D01*
X147319666Y-106766761D01*
X147224428Y-106671523D01*
X147176809Y-106481047D01*
X147176809Y-106147714D01*
X147224428Y-105957238D01*
X147319666Y-105862000D01*
X147414904Y-105814380D01*
X149605380Y-106814380D02*
X149272047Y-106338190D01*
X149033952Y-106814380D02*
X149033952Y-105814380D01*
X149414904Y-105814380D01*
X149510142Y-105862000D01*
X149557761Y-105909619D01*
X149605380Y-106004857D01*
X149605380Y-106147714D01*
X149557761Y-106242952D01*
X149510142Y-106290571D01*
X149414904Y-106338190D01*
X149033952Y-106338190D01*
X149938714Y-105814380D02*
X150557761Y-105814380D01*
X150224428Y-106195333D01*
X150367285Y-106195333D01*
X150462523Y-106242952D01*
X150510142Y-106290571D01*
X150557761Y-106385809D01*
X150557761Y-106623904D01*
X150510142Y-106719142D01*
X150462523Y-106766761D01*
X150367285Y-106814380D01*
X150081571Y-106814380D01*
X149986333Y-106766761D01*
X149938714Y-106719142D01*
D11*
X161969267Y-97284000D02*
X161626733Y-97284000D01*
X161969267Y-96264000D02*
X161626733Y-96264000D01*
X179495267Y-97284000D02*
X179152733Y-97284000D01*
X179495267Y-96264000D02*
X179152733Y-96264000D01*
X141166000Y-97028462D02*
G75*
G03X135616000Y-95483170I-2990000J462D01*
G01*
X141166000Y-97027538D02*
G75*
G02X135616000Y-98572830I-2990000J-462D01*
G01*
X140676000Y-97028000D02*
G75*
G03X140676000Y-97028000I-2500000J0D01*
G01*
X135616000Y-95483000D02*
X135616000Y-98573000D01*
X146590000Y-95988000D02*
X146590000Y-95658000D01*
X146590000Y-95658000D02*
X153130000Y-95658000D01*
X153130000Y-95658000D02*
X153130000Y-95988000D01*
X146590000Y-98068000D02*
X146590000Y-98398000D01*
X146590000Y-98398000D02*
X153130000Y-98398000D01*
X153130000Y-98398000D02*
X153130000Y-98068000D01*
X170414000Y-103124000D02*
X170414000Y-101174000D01*
X170414000Y-103124000D02*
X170414000Y-105074000D01*
X160294000Y-103124000D02*
X160294000Y-101174000D01*
X160294000Y-103124000D02*
X160294000Y-106574000D01*
X177820000Y-103124000D02*
X177820000Y-106574000D01*
X177820000Y-103124000D02*
X177820000Y-101174000D01*
X187940000Y-103124000D02*
X187940000Y-105074000D01*
X187940000Y-103124000D02*
X187940000Y-101174000D01*
X199400000Y-69952000D02*
G75*
G03X199400000Y-69952000I-2550000J0D01*
G01*
X197750000Y-69952000D02*
G75*
G03X197750000Y-69952000I-900000J0D01*
G01*
X194400000Y-69222000D02*
X135360000Y-69222000D01*
X135360000Y-69222000D02*
X135360000Y-92322000D01*
X135360000Y-92322000D02*
X201160000Y-92322000D01*
X201160000Y-92322000D02*
X201160000Y-69222000D01*
X201160000Y-69222000D02*
X199300000Y-69222000D01*
X201160000Y-71502000D02*
X198900000Y-71502000D01*
X189230000Y-68202000D02*
X191770000Y-68202000D01*
D10*
X130361001Y-60273001D02*
X130361001Y-113613001D01*
X196401001Y-72973001D02*
X196401001Y-61797001D01*
X198941001Y-75513001D02*
X196401001Y-72973001D01*
X198941001Y-109803001D02*
X198941001Y-75513001D01*
X196401001Y-112343001D02*
X198941001Y-109803001D01*
X196401001Y-113613001D02*
X196401001Y-112343001D01*
X194877001Y-60273001D02*
X196401001Y-61797001D01*
X130361001Y-113613001D02*
X196401001Y-113613001D01*
X130361001Y-60273001D02*
X194877001Y-60273001D01*
X161631333Y-98561142D02*
X161583714Y-98608761D01*
X161440857Y-98656380D01*
X161345619Y-98656380D01*
X161202761Y-98608761D01*
X161107523Y-98513523D01*
X161059904Y-98418285D01*
X161012285Y-98227809D01*
X161012285Y-98084952D01*
X161059904Y-97894476D01*
X161107523Y-97799238D01*
X161202761Y-97704000D01*
X161345619Y-97656380D01*
X161440857Y-97656380D01*
X161583714Y-97704000D01*
X161631333Y-97751619D01*
X162583714Y-98656380D02*
X162012285Y-98656380D01*
X162298000Y-98656380D02*
X162298000Y-97656380D01*
X162202761Y-97799238D01*
X162107523Y-97894476D01*
X162012285Y-97942095D01*
X179157333Y-98561142D02*
X179109714Y-98608761D01*
X178966857Y-98656380D01*
X178871619Y-98656380D01*
X178728761Y-98608761D01*
X178633523Y-98513523D01*
X178585904Y-98418285D01*
X178538285Y-98227809D01*
X178538285Y-98084952D01*
X178585904Y-97894476D01*
X178633523Y-97799238D01*
X178728761Y-97704000D01*
X178871619Y-97656380D01*
X178966857Y-97656380D01*
X179109714Y-97704000D01*
X179157333Y-97751619D01*
X179538285Y-97751619D02*
X179585904Y-97704000D01*
X179681142Y-97656380D01*
X179919238Y-97656380D01*
X180014476Y-97704000D01*
X180062095Y-97751619D01*
X180109714Y-97846857D01*
X180109714Y-97942095D01*
X180062095Y-98084952D01*
X179490666Y-98656380D01*
X180109714Y-98656380D01*
X133119904Y-97480380D02*
X133119904Y-96480380D01*
X133358000Y-96480380D01*
X133500857Y-96528000D01*
X133596095Y-96623238D01*
X133643714Y-96718476D01*
X133691333Y-96908952D01*
X133691333Y-97051809D01*
X133643714Y-97242285D01*
X133596095Y-97337523D01*
X133500857Y-97432761D01*
X133358000Y-97480380D01*
X133119904Y-97480380D01*
X134643714Y-97480380D02*
X134072285Y-97480380D01*
X134358000Y-97480380D02*
X134358000Y-96480380D01*
X134262761Y-96623238D01*
X134167523Y-96718476D01*
X134072285Y-96766095D01*
X149693333Y-95110380D02*
X149360000Y-94634190D01*
X149121904Y-95110380D02*
X149121904Y-94110380D01*
X149502857Y-94110380D01*
X149598095Y-94158000D01*
X149645714Y-94205619D01*
X149693333Y-94300857D01*
X149693333Y-94443714D01*
X149645714Y-94538952D01*
X149598095Y-94586571D01*
X149502857Y-94634190D01*
X149121904Y-94634190D01*
X150645714Y-95110380D02*
X150074285Y-95110380D01*
X150360000Y-95110380D02*
X150360000Y-94110380D01*
X150264761Y-94253238D01*
X150169523Y-94348476D01*
X150074285Y-94396095D01*
X158906380Y-103885904D02*
X159715904Y-103885904D01*
X159811142Y-103838285D01*
X159858761Y-103790666D01*
X159906380Y-103695428D01*
X159906380Y-103504952D01*
X159858761Y-103409714D01*
X159811142Y-103362095D01*
X159715904Y-103314476D01*
X158906380Y-103314476D01*
X159906380Y-102314476D02*
X159906380Y-102885904D01*
X159906380Y-102600190D02*
X158906380Y-102600190D01*
X159049238Y-102695428D01*
X159144476Y-102790666D01*
X159192095Y-102885904D01*
X176432380Y-103885904D02*
X177241904Y-103885904D01*
X177337142Y-103838285D01*
X177384761Y-103790666D01*
X177432380Y-103695428D01*
X177432380Y-103504952D01*
X177384761Y-103409714D01*
X177337142Y-103362095D01*
X177241904Y-103314476D01*
X176432380Y-103314476D01*
X176527619Y-102885904D02*
X176480000Y-102838285D01*
X176432380Y-102743047D01*
X176432380Y-102504952D01*
X176480000Y-102409714D01*
X176527619Y-102362095D01*
X176622857Y-102314476D01*
X176718095Y-102314476D01*
X176860952Y-102362095D01*
X177432380Y-102933523D01*
X177432380Y-102314476D01*
X136144095Y-67270380D02*
X136144095Y-68079904D01*
X136191714Y-68175142D01*
X136239333Y-68222761D01*
X136334571Y-68270380D01*
X136525047Y-68270380D01*
X136620285Y-68222761D01*
X136667904Y-68175142D01*
X136715523Y-68079904D01*
X136715523Y-67270380D01*
X137096476Y-67270380D02*
X137715523Y-67270380D01*
X137382190Y-67651333D01*
X137525047Y-67651333D01*
X137620285Y-67698952D01*
X137667904Y-67746571D01*
X137715523Y-67841809D01*
X137715523Y-68079904D01*
X137667904Y-68175142D01*
X137620285Y-68222761D01*
X137525047Y-68270380D01*
X137239333Y-68270380D01*
X137144095Y-68222761D01*
X137096476Y-68175142D01*
X131662905Y-58709381D02*
X132329572Y-59709381D01*
X132329572Y-58709381D02*
X131662905Y-59709381D01*
X132662905Y-59423667D02*
X133139096Y-59423667D01*
X132567667Y-59709381D02*
X132901001Y-58709381D01*
X133234334Y-59709381D01*
X134091477Y-59709381D02*
X133520048Y-59709381D01*
X133805762Y-59709381D02*
X133805762Y-58709381D01*
X133710524Y-58852239D01*
X133615286Y-58947477D01*
X133520048Y-58995096D01*
M02*
