M48
; DRILL file {KiCad (5.1.2-1)-1} date Thursday, August 29, 2019 at 09:12:06 PM
; FORMAT={-:-/ absolute / inch / decimal}
; #@! TF.CreationDate,2019-08-29T21:12:06-07:00
; #@! TF.GenerationSoftware,Kicad,Pcbnew,(5.1.2-1)-1
; #@! TF.FileFunction,Plated,1,2,PTH
FMAT,2
INCH
T1C0.0130
T2C0.0315
T3C0.0354
T4C0.0394
T5C0.0400
%
G90
G05
T1
X6.0Y-3.04
X6.1Y-3.04
X6.2Y-3.22
X6.3Y-3.22
X6.335Y-3.875
X6.4Y-3.22
X6.485Y-3.74
X6.5Y-3.22
X6.535Y-3.77
X6.55Y-3.115
X6.585Y-3.8
X6.6Y-3.64
X6.635Y-3.83
X6.685Y-4.045
X6.7Y-3.22
X6.8Y-3.22
X6.9Y-3.22
X6.95Y-3.64
X7.0Y-3.22
X7.0256Y-3.8744
X7.1Y-3.22
X7.1Y-3.64
X7.1267Y-4.045
X7.175Y-3.74
X7.225Y-3.77
X7.275Y-3.8
X7.325Y-3.83
T2
X5.75Y-3.82
X6.05Y-3.82
T3
X5.39Y-3.82
X5.49Y-3.82
T4
X5.6Y-2.88
X5.6Y-3.48
X5.7Y-2.88
X5.7Y-3.48
X5.8Y-2.88
X5.8Y-3.48
X5.9Y-2.88
X5.9Y-3.48
X6.0Y-2.88
X6.0Y-3.48
X6.1Y-2.88
X6.1Y-3.48
X6.2Y-2.88
X6.2Y-3.48
X6.3Y-2.88
X6.3Y-3.48
X6.4Y-2.88
X6.4Y-3.48
X6.5Y-2.88
X6.5Y-3.48
X6.6Y-2.88
X6.6Y-3.48
X6.7Y-2.88
X6.7Y-3.48
X6.8Y-2.88
X6.8Y-3.48
X6.9Y-2.88
X6.9Y-3.48
X7.0Y-2.88
X7.0Y-3.48
X7.1Y-2.88
X7.1Y-3.48
X7.2Y-2.88
X7.2Y-3.48
X7.3Y-2.88
X7.3Y-3.48
X7.4Y-2.88
X7.4Y-3.48
X7.5Y-2.88
X7.5Y-3.48
T5
X5.8723Y-2.473
X5.9723Y-2.473
X6.0723Y-2.473
X6.1723Y-2.473
X6.2323Y-4.373
X6.2723Y-2.473
X6.3323Y-4.373
X6.3723Y-2.473
X6.4323Y-4.373
X6.4723Y-2.473
X6.5323Y-4.373
X6.5723Y-2.473
X6.6323Y-4.373
X6.6723Y-2.473
X6.7323Y-4.373
X6.7723Y-2.473
X6.8323Y-4.373
X6.9323Y-2.473
X6.9323Y-4.373
X7.0323Y-2.473
X7.1323Y-2.473
X7.1323Y-4.373
X7.2323Y-2.473
X7.2323Y-4.373
X7.3323Y-2.473
X7.3323Y-4.373
X7.4323Y-2.473
X7.4323Y-4.373
X7.5323Y-2.473
X7.5323Y-4.373
X7.6323Y-2.473
X7.6323Y-4.373
X7.6373Y-3.273
X7.6373Y-3.373
X7.6373Y-3.473
X7.7373Y-3.273
X7.7373Y-3.373
X7.7373Y-3.473
T0
M30
