G04 #@! TF.GenerationSoftware,KiCad,Pcbnew,(5.1.2-1)-1*
G04 #@! TF.CreationDate,2019-08-29T21:11:54-07:00*
G04 #@! TF.ProjectId,kicad,6b696361-642e-46b6-9963-61645f706362,rev?*
G04 #@! TF.SameCoordinates,Original*
G04 #@! TF.FileFunction,Soldermask,Bot*
G04 #@! TF.FilePolarity,Negative*
%FSLAX46Y46*%
G04 Gerber Fmt 4.6, Leading zero omitted, Abs format (unit mm)*
G04 Created by KiCad (PCBNEW (5.1.2-1)-1) date 2019-08-29 21:11:54*
%MOMM*%
%LPD*%
G04 APERTURE LIST*
%ADD10C,0.100000*%
G04 APERTURE END LIST*
D10*
G36*
X144706257Y-109464299D02*
G01*
X144812580Y-109485448D01*
X145113043Y-109609904D01*
X145383452Y-109790586D01*
X145613416Y-110020550D01*
X145794098Y-110290959D01*
X145794099Y-110290961D01*
X145918554Y-110591423D01*
X145982001Y-110910390D01*
X145982001Y-111235612D01*
X145918554Y-111554579D01*
X145801513Y-111837143D01*
X145794098Y-111855043D01*
X145613416Y-112125452D01*
X145383452Y-112355416D01*
X145113043Y-112536098D01*
X144812580Y-112660554D01*
X144706257Y-112681703D01*
X144493612Y-112724001D01*
X144168390Y-112724001D01*
X143955745Y-112681703D01*
X143849422Y-112660554D01*
X143548959Y-112536098D01*
X143278550Y-112355416D01*
X143048586Y-112125452D01*
X142867904Y-111855043D01*
X142860490Y-111837143D01*
X142743448Y-111554579D01*
X142680001Y-111235612D01*
X142680001Y-110910390D01*
X142743448Y-110591423D01*
X142867903Y-110290961D01*
X142867904Y-110290959D01*
X143048586Y-110020550D01*
X143278550Y-109790586D01*
X143548959Y-109609904D01*
X143849422Y-109485448D01*
X143955745Y-109464299D01*
X144168390Y-109422001D01*
X144493612Y-109422001D01*
X144706257Y-109464299D01*
X144706257Y-109464299D01*
G37*
G36*
X191500295Y-110171634D02*
G01*
X191672696Y-110223932D01*
X191831584Y-110308859D01*
X191970850Y-110423152D01*
X192085143Y-110562418D01*
X192170070Y-110721306D01*
X192222368Y-110893707D01*
X192240026Y-111073001D01*
X192222368Y-111252295D01*
X192170070Y-111424696D01*
X192085143Y-111583584D01*
X191970850Y-111722850D01*
X191831584Y-111837143D01*
X191672696Y-111922070D01*
X191500295Y-111974368D01*
X191365932Y-111987601D01*
X191276070Y-111987601D01*
X191141707Y-111974368D01*
X190969306Y-111922070D01*
X190810418Y-111837143D01*
X190671152Y-111722850D01*
X190556859Y-111583584D01*
X190471932Y-111424696D01*
X190419634Y-111252295D01*
X190401976Y-111073001D01*
X190419634Y-110893707D01*
X190471932Y-110721306D01*
X190556859Y-110562418D01*
X190671152Y-110423152D01*
X190810418Y-110308859D01*
X190969306Y-110223932D01*
X191141707Y-110171634D01*
X191276070Y-110158401D01*
X191365932Y-110158401D01*
X191500295Y-110171634D01*
X191500295Y-110171634D01*
G37*
G36*
X188960295Y-110171634D02*
G01*
X189132696Y-110223932D01*
X189291584Y-110308859D01*
X189430850Y-110423152D01*
X189545143Y-110562418D01*
X189630070Y-110721306D01*
X189682368Y-110893707D01*
X189700026Y-111073001D01*
X189682368Y-111252295D01*
X189630070Y-111424696D01*
X189545143Y-111583584D01*
X189430850Y-111722850D01*
X189291584Y-111837143D01*
X189132696Y-111922070D01*
X188960295Y-111974368D01*
X188825932Y-111987601D01*
X188736070Y-111987601D01*
X188601707Y-111974368D01*
X188429306Y-111922070D01*
X188270418Y-111837143D01*
X188131152Y-111722850D01*
X188016859Y-111583584D01*
X187931932Y-111424696D01*
X187879634Y-111252295D01*
X187861976Y-111073001D01*
X187879634Y-110893707D01*
X187931932Y-110721306D01*
X188016859Y-110562418D01*
X188131152Y-110423152D01*
X188270418Y-110308859D01*
X188429306Y-110223932D01*
X188601707Y-110171634D01*
X188736070Y-110158401D01*
X188825932Y-110158401D01*
X188960295Y-110171634D01*
X188960295Y-110171634D01*
G37*
G36*
X186420295Y-110171634D02*
G01*
X186592696Y-110223932D01*
X186751584Y-110308859D01*
X186890850Y-110423152D01*
X187005143Y-110562418D01*
X187090070Y-110721306D01*
X187142368Y-110893707D01*
X187160026Y-111073001D01*
X187142368Y-111252295D01*
X187090070Y-111424696D01*
X187005143Y-111583584D01*
X186890850Y-111722850D01*
X186751584Y-111837143D01*
X186592696Y-111922070D01*
X186420295Y-111974368D01*
X186285932Y-111987601D01*
X186196070Y-111987601D01*
X186061707Y-111974368D01*
X185889306Y-111922070D01*
X185730418Y-111837143D01*
X185591152Y-111722850D01*
X185476859Y-111583584D01*
X185391932Y-111424696D01*
X185339634Y-111252295D01*
X185321976Y-111073001D01*
X185339634Y-110893707D01*
X185391932Y-110721306D01*
X185476859Y-110562418D01*
X185591152Y-110423152D01*
X185730418Y-110308859D01*
X185889306Y-110223932D01*
X186061707Y-110171634D01*
X186196070Y-110158401D01*
X186285932Y-110158401D01*
X186420295Y-110171634D01*
X186420295Y-110171634D01*
G37*
G36*
X183880295Y-110171634D02*
G01*
X184052696Y-110223932D01*
X184211584Y-110308859D01*
X184350850Y-110423152D01*
X184465143Y-110562418D01*
X184550070Y-110721306D01*
X184602368Y-110893707D01*
X184620026Y-111073001D01*
X184602368Y-111252295D01*
X184550070Y-111424696D01*
X184465143Y-111583584D01*
X184350850Y-111722850D01*
X184211584Y-111837143D01*
X184052696Y-111922070D01*
X183880295Y-111974368D01*
X183745932Y-111987601D01*
X183656070Y-111987601D01*
X183521707Y-111974368D01*
X183349306Y-111922070D01*
X183190418Y-111837143D01*
X183051152Y-111722850D01*
X182936859Y-111583584D01*
X182851932Y-111424696D01*
X182799634Y-111252295D01*
X182781976Y-111073001D01*
X182799634Y-110893707D01*
X182851932Y-110721306D01*
X182936859Y-110562418D01*
X183051152Y-110423152D01*
X183190418Y-110308859D01*
X183349306Y-110223932D01*
X183521707Y-110171634D01*
X183656070Y-110158401D01*
X183745932Y-110158401D01*
X183880295Y-110171634D01*
X183880295Y-110171634D01*
G37*
G36*
X181340295Y-110171634D02*
G01*
X181512696Y-110223932D01*
X181671584Y-110308859D01*
X181810850Y-110423152D01*
X181925143Y-110562418D01*
X182010070Y-110721306D01*
X182062368Y-110893707D01*
X182080026Y-111073001D01*
X182062368Y-111252295D01*
X182010070Y-111424696D01*
X181925143Y-111583584D01*
X181810850Y-111722850D01*
X181671584Y-111837143D01*
X181512696Y-111922070D01*
X181340295Y-111974368D01*
X181205932Y-111987601D01*
X181116070Y-111987601D01*
X180981707Y-111974368D01*
X180809306Y-111922070D01*
X180650418Y-111837143D01*
X180511152Y-111722850D01*
X180396859Y-111583584D01*
X180311932Y-111424696D01*
X180259634Y-111252295D01*
X180241976Y-111073001D01*
X180259634Y-110893707D01*
X180311932Y-110721306D01*
X180396859Y-110562418D01*
X180511152Y-110423152D01*
X180650418Y-110308859D01*
X180809306Y-110223932D01*
X180981707Y-110171634D01*
X181116070Y-110158401D01*
X181205932Y-110158401D01*
X181340295Y-110171634D01*
X181340295Y-110171634D01*
G37*
G36*
X176260295Y-110171634D02*
G01*
X176432696Y-110223932D01*
X176591584Y-110308859D01*
X176730850Y-110423152D01*
X176845143Y-110562418D01*
X176930070Y-110721306D01*
X176982368Y-110893707D01*
X177000026Y-111073001D01*
X176982368Y-111252295D01*
X176930070Y-111424696D01*
X176845143Y-111583584D01*
X176730850Y-111722850D01*
X176591584Y-111837143D01*
X176432696Y-111922070D01*
X176260295Y-111974368D01*
X176125932Y-111987601D01*
X176036070Y-111987601D01*
X175901707Y-111974368D01*
X175729306Y-111922070D01*
X175570418Y-111837143D01*
X175431152Y-111722850D01*
X175316859Y-111583584D01*
X175231932Y-111424696D01*
X175179634Y-111252295D01*
X175161976Y-111073001D01*
X175179634Y-110893707D01*
X175231932Y-110721306D01*
X175316859Y-110562418D01*
X175431152Y-110423152D01*
X175570418Y-110308859D01*
X175729306Y-110223932D01*
X175901707Y-110171634D01*
X176036070Y-110158401D01*
X176125932Y-110158401D01*
X176260295Y-110171634D01*
X176260295Y-110171634D01*
G37*
G36*
X173720295Y-110171634D02*
G01*
X173892696Y-110223932D01*
X174051584Y-110308859D01*
X174190850Y-110423152D01*
X174305143Y-110562418D01*
X174390070Y-110721306D01*
X174442368Y-110893707D01*
X174460026Y-111073001D01*
X174442368Y-111252295D01*
X174390070Y-111424696D01*
X174305143Y-111583584D01*
X174190850Y-111722850D01*
X174051584Y-111837143D01*
X173892696Y-111922070D01*
X173720295Y-111974368D01*
X173585932Y-111987601D01*
X173496070Y-111987601D01*
X173361707Y-111974368D01*
X173189306Y-111922070D01*
X173030418Y-111837143D01*
X172891152Y-111722850D01*
X172776859Y-111583584D01*
X172691932Y-111424696D01*
X172639634Y-111252295D01*
X172621976Y-111073001D01*
X172639634Y-110893707D01*
X172691932Y-110721306D01*
X172776859Y-110562418D01*
X172891152Y-110423152D01*
X173030418Y-110308859D01*
X173189306Y-110223932D01*
X173361707Y-110171634D01*
X173496070Y-110158401D01*
X173585932Y-110158401D01*
X173720295Y-110171634D01*
X173720295Y-110171634D01*
G37*
G36*
X171180295Y-110171634D02*
G01*
X171352696Y-110223932D01*
X171511584Y-110308859D01*
X171650850Y-110423152D01*
X171765143Y-110562418D01*
X171850070Y-110721306D01*
X171902368Y-110893707D01*
X171920026Y-111073001D01*
X171902368Y-111252295D01*
X171850070Y-111424696D01*
X171765143Y-111583584D01*
X171650850Y-111722850D01*
X171511584Y-111837143D01*
X171352696Y-111922070D01*
X171180295Y-111974368D01*
X171045932Y-111987601D01*
X170956070Y-111987601D01*
X170821707Y-111974368D01*
X170649306Y-111922070D01*
X170490418Y-111837143D01*
X170351152Y-111722850D01*
X170236859Y-111583584D01*
X170151932Y-111424696D01*
X170099634Y-111252295D01*
X170081976Y-111073001D01*
X170099634Y-110893707D01*
X170151932Y-110721306D01*
X170236859Y-110562418D01*
X170351152Y-110423152D01*
X170490418Y-110308859D01*
X170649306Y-110223932D01*
X170821707Y-110171634D01*
X170956070Y-110158401D01*
X171045932Y-110158401D01*
X171180295Y-110171634D01*
X171180295Y-110171634D01*
G37*
G36*
X168640295Y-110171634D02*
G01*
X168812696Y-110223932D01*
X168971584Y-110308859D01*
X169110850Y-110423152D01*
X169225143Y-110562418D01*
X169310070Y-110721306D01*
X169362368Y-110893707D01*
X169380026Y-111073001D01*
X169362368Y-111252295D01*
X169310070Y-111424696D01*
X169225143Y-111583584D01*
X169110850Y-111722850D01*
X168971584Y-111837143D01*
X168812696Y-111922070D01*
X168640295Y-111974368D01*
X168505932Y-111987601D01*
X168416070Y-111987601D01*
X168281707Y-111974368D01*
X168109306Y-111922070D01*
X167950418Y-111837143D01*
X167811152Y-111722850D01*
X167696859Y-111583584D01*
X167611932Y-111424696D01*
X167559634Y-111252295D01*
X167541976Y-111073001D01*
X167559634Y-110893707D01*
X167611932Y-110721306D01*
X167696859Y-110562418D01*
X167811152Y-110423152D01*
X167950418Y-110308859D01*
X168109306Y-110223932D01*
X168281707Y-110171634D01*
X168416070Y-110158401D01*
X168505932Y-110158401D01*
X168640295Y-110171634D01*
X168640295Y-110171634D01*
G37*
G36*
X166100295Y-110171634D02*
G01*
X166272696Y-110223932D01*
X166431584Y-110308859D01*
X166570850Y-110423152D01*
X166685143Y-110562418D01*
X166770070Y-110721306D01*
X166822368Y-110893707D01*
X166840026Y-111073001D01*
X166822368Y-111252295D01*
X166770070Y-111424696D01*
X166685143Y-111583584D01*
X166570850Y-111722850D01*
X166431584Y-111837143D01*
X166272696Y-111922070D01*
X166100295Y-111974368D01*
X165965932Y-111987601D01*
X165876070Y-111987601D01*
X165741707Y-111974368D01*
X165569306Y-111922070D01*
X165410418Y-111837143D01*
X165271152Y-111722850D01*
X165156859Y-111583584D01*
X165071932Y-111424696D01*
X165019634Y-111252295D01*
X165001976Y-111073001D01*
X165019634Y-110893707D01*
X165071932Y-110721306D01*
X165156859Y-110562418D01*
X165271152Y-110423152D01*
X165410418Y-110308859D01*
X165569306Y-110223932D01*
X165741707Y-110171634D01*
X165876070Y-110158401D01*
X165965932Y-110158401D01*
X166100295Y-110171634D01*
X166100295Y-110171634D01*
G37*
G36*
X163560295Y-110171634D02*
G01*
X163732696Y-110223932D01*
X163891584Y-110308859D01*
X164030850Y-110423152D01*
X164145143Y-110562418D01*
X164230070Y-110721306D01*
X164282368Y-110893707D01*
X164300026Y-111073001D01*
X164282368Y-111252295D01*
X164230070Y-111424696D01*
X164145143Y-111583584D01*
X164030850Y-111722850D01*
X163891584Y-111837143D01*
X163732696Y-111922070D01*
X163560295Y-111974368D01*
X163425932Y-111987601D01*
X163336070Y-111987601D01*
X163201707Y-111974368D01*
X163029306Y-111922070D01*
X162870418Y-111837143D01*
X162731152Y-111722850D01*
X162616859Y-111583584D01*
X162531932Y-111424696D01*
X162479634Y-111252295D01*
X162461976Y-111073001D01*
X162479634Y-110893707D01*
X162531932Y-110721306D01*
X162616859Y-110562418D01*
X162731152Y-110423152D01*
X162870418Y-110308859D01*
X163029306Y-110223932D01*
X163201707Y-110171634D01*
X163336070Y-110158401D01*
X163425932Y-110158401D01*
X163560295Y-110171634D01*
X163560295Y-110171634D01*
G37*
G36*
X161020295Y-110171634D02*
G01*
X161192696Y-110223932D01*
X161351584Y-110308859D01*
X161490850Y-110423152D01*
X161605143Y-110562418D01*
X161690070Y-110721306D01*
X161742368Y-110893707D01*
X161760026Y-111073001D01*
X161742368Y-111252295D01*
X161690070Y-111424696D01*
X161605143Y-111583584D01*
X161490850Y-111722850D01*
X161351584Y-111837143D01*
X161192696Y-111922070D01*
X161020295Y-111974368D01*
X160885932Y-111987601D01*
X160796070Y-111987601D01*
X160661707Y-111974368D01*
X160489306Y-111922070D01*
X160330418Y-111837143D01*
X160191152Y-111722850D01*
X160076859Y-111583584D01*
X159991932Y-111424696D01*
X159939634Y-111252295D01*
X159921976Y-111073001D01*
X159939634Y-110893707D01*
X159991932Y-110721306D01*
X160076859Y-110562418D01*
X160191152Y-110423152D01*
X160330418Y-110308859D01*
X160489306Y-110223932D01*
X160661707Y-110171634D01*
X160796070Y-110158401D01*
X160885932Y-110158401D01*
X161020295Y-110171634D01*
X161020295Y-110171634D01*
G37*
G36*
X158480295Y-110171634D02*
G01*
X158652696Y-110223932D01*
X158811584Y-110308859D01*
X158950850Y-110423152D01*
X159065143Y-110562418D01*
X159150070Y-110721306D01*
X159202368Y-110893707D01*
X159220026Y-111073001D01*
X159202368Y-111252295D01*
X159150070Y-111424696D01*
X159065143Y-111583584D01*
X158950850Y-111722850D01*
X158811584Y-111837143D01*
X158652696Y-111922070D01*
X158480295Y-111974368D01*
X158345932Y-111987601D01*
X158256070Y-111987601D01*
X158121707Y-111974368D01*
X157949306Y-111922070D01*
X157790418Y-111837143D01*
X157651152Y-111722850D01*
X157536859Y-111583584D01*
X157451932Y-111424696D01*
X157399634Y-111252295D01*
X157381976Y-111073001D01*
X157399634Y-110893707D01*
X157451932Y-110721306D01*
X157536859Y-110562418D01*
X157651152Y-110423152D01*
X157790418Y-110308859D01*
X157949306Y-110223932D01*
X158121707Y-110171634D01*
X158256070Y-110158401D01*
X158345932Y-110158401D01*
X158480295Y-110171634D01*
X158480295Y-110171634D01*
G37*
G36*
X194040295Y-110171634D02*
G01*
X194212696Y-110223932D01*
X194371584Y-110308859D01*
X194510850Y-110423152D01*
X194625143Y-110562418D01*
X194710070Y-110721306D01*
X194762368Y-110893707D01*
X194780026Y-111073001D01*
X194762368Y-111252295D01*
X194710070Y-111424696D01*
X194625143Y-111583584D01*
X194510850Y-111722850D01*
X194371584Y-111837143D01*
X194212696Y-111922070D01*
X194040295Y-111974368D01*
X193905932Y-111987601D01*
X193816070Y-111987601D01*
X193681707Y-111974368D01*
X193509306Y-111922070D01*
X193350418Y-111837143D01*
X193211152Y-111722850D01*
X193096859Y-111583584D01*
X193011932Y-111424696D01*
X192959634Y-111252295D01*
X192941976Y-111073001D01*
X192959634Y-110893707D01*
X193011932Y-110721306D01*
X193096859Y-110562418D01*
X193211152Y-110423152D01*
X193350418Y-110308859D01*
X193509306Y-110223932D01*
X193681707Y-110171634D01*
X193816070Y-110158401D01*
X193905932Y-110158401D01*
X194040295Y-110171634D01*
X194040295Y-110171634D01*
G37*
G36*
X196776257Y-104384299D02*
G01*
X196882580Y-104405448D01*
X197183043Y-104529904D01*
X197453452Y-104710586D01*
X197683416Y-104940550D01*
X197864098Y-105210959D01*
X197988554Y-105511422D01*
X198052001Y-105830392D01*
X198052001Y-106155610D01*
X197988554Y-106474580D01*
X197864098Y-106775043D01*
X197683416Y-107045452D01*
X197453452Y-107275416D01*
X197183043Y-107456098D01*
X196882580Y-107580554D01*
X196776257Y-107601703D01*
X196563612Y-107644001D01*
X196238390Y-107644001D01*
X196025745Y-107601703D01*
X195919422Y-107580554D01*
X195618959Y-107456098D01*
X195348550Y-107275416D01*
X195118586Y-107045452D01*
X194937904Y-106775043D01*
X194813448Y-106474580D01*
X194750001Y-106155610D01*
X194750001Y-105830392D01*
X194813448Y-105511422D01*
X194937904Y-105210959D01*
X195118586Y-104940550D01*
X195348550Y-104710586D01*
X195618959Y-104529904D01*
X195919422Y-104405448D01*
X196025745Y-104384299D01*
X196238390Y-104342001D01*
X196563612Y-104342001D01*
X196776257Y-104384299D01*
X196776257Y-104384299D01*
G37*
G36*
X137857000Y-97979000D02*
G01*
X135955000Y-97979000D01*
X135955000Y-96077000D01*
X137857000Y-96077000D01*
X137857000Y-97979000D01*
X137857000Y-97979000D01*
G37*
G36*
X139723395Y-96113546D02*
G01*
X139896466Y-96185234D01*
X139902572Y-96189314D01*
X140052227Y-96289310D01*
X140184690Y-96421773D01*
X140227284Y-96485520D01*
X140288766Y-96577534D01*
X140360454Y-96750605D01*
X140397000Y-96934333D01*
X140397000Y-97121667D01*
X140360454Y-97305395D01*
X140288766Y-97478466D01*
X140288765Y-97478467D01*
X140184690Y-97634227D01*
X140052227Y-97766690D01*
X140029092Y-97782148D01*
X139896466Y-97870766D01*
X139723395Y-97942454D01*
X139539667Y-97979000D01*
X139352333Y-97979000D01*
X139168605Y-97942454D01*
X138995534Y-97870766D01*
X138862908Y-97782148D01*
X138839773Y-97766690D01*
X138707310Y-97634227D01*
X138603235Y-97478467D01*
X138603234Y-97478466D01*
X138531546Y-97305395D01*
X138495000Y-97121667D01*
X138495000Y-96934333D01*
X138531546Y-96750605D01*
X138603234Y-96577534D01*
X138664716Y-96485520D01*
X138707310Y-96421773D01*
X138839773Y-96289310D01*
X138989428Y-96189314D01*
X138995534Y-96185234D01*
X139168605Y-96113546D01*
X139352333Y-96077000D01*
X139539667Y-96077000D01*
X139723395Y-96113546D01*
X139723395Y-96113546D01*
G37*
G36*
X146298228Y-96209703D02*
G01*
X146453100Y-96273853D01*
X146592481Y-96366985D01*
X146711015Y-96485519D01*
X146804147Y-96624900D01*
X146868297Y-96779772D01*
X146901000Y-96944184D01*
X146901000Y-97111816D01*
X146868297Y-97276228D01*
X146804147Y-97431100D01*
X146711015Y-97570481D01*
X146592481Y-97689015D01*
X146453100Y-97782147D01*
X146298228Y-97846297D01*
X146133816Y-97879000D01*
X145966184Y-97879000D01*
X145801772Y-97846297D01*
X145646900Y-97782147D01*
X145507519Y-97689015D01*
X145388985Y-97570481D01*
X145295853Y-97431100D01*
X145231703Y-97276228D01*
X145199000Y-97111816D01*
X145199000Y-96944184D01*
X145231703Y-96779772D01*
X145295853Y-96624900D01*
X145388985Y-96485519D01*
X145507519Y-96366985D01*
X145646900Y-96273853D01*
X145801772Y-96209703D01*
X145966184Y-96177000D01*
X146133816Y-96177000D01*
X146298228Y-96209703D01*
X146298228Y-96209703D01*
G37*
G36*
X153836823Y-96189313D02*
G01*
X153997242Y-96237976D01*
X154064361Y-96273852D01*
X154145078Y-96316996D01*
X154274659Y-96423341D01*
X154381004Y-96552922D01*
X154381005Y-96552924D01*
X154460024Y-96700758D01*
X154508687Y-96861177D01*
X154525117Y-97028000D01*
X154508687Y-97194823D01*
X154460024Y-97355242D01*
X154419477Y-97431100D01*
X154381004Y-97503078D01*
X154274659Y-97632659D01*
X154145078Y-97739004D01*
X154145076Y-97739005D01*
X153997242Y-97818024D01*
X153836823Y-97866687D01*
X153711804Y-97879000D01*
X153628196Y-97879000D01*
X153503177Y-97866687D01*
X153342758Y-97818024D01*
X153194924Y-97739005D01*
X153194922Y-97739004D01*
X153065341Y-97632659D01*
X152958996Y-97503078D01*
X152920523Y-97431100D01*
X152879976Y-97355242D01*
X152831313Y-97194823D01*
X152814883Y-97028000D01*
X152831313Y-96861177D01*
X152879976Y-96700758D01*
X152958995Y-96552924D01*
X152958996Y-96552922D01*
X153065341Y-96423341D01*
X153194922Y-96316996D01*
X153275639Y-96273852D01*
X153342758Y-96237976D01*
X153503177Y-96189313D01*
X153628196Y-96177000D01*
X153711804Y-96177000D01*
X153836823Y-96189313D01*
X153836823Y-96189313D01*
G37*
G36*
X167791142Y-87352156D02*
G01*
X167936476Y-87396243D01*
X167936479Y-87396244D01*
X168070416Y-87467835D01*
X168187817Y-87564183D01*
X168284165Y-87681584D01*
X168355756Y-87815521D01*
X168355757Y-87815524D01*
X168399844Y-87960858D01*
X168411000Y-88074128D01*
X168411000Y-88709872D01*
X168399844Y-88823142D01*
X168355757Y-88968475D01*
X168355756Y-88968479D01*
X168284165Y-89102416D01*
X168284164Y-89102417D01*
X168187817Y-89219817D01*
X168088268Y-89301514D01*
X168070415Y-89316165D01*
X167936478Y-89387756D01*
X167936475Y-89387757D01*
X167791141Y-89431844D01*
X167640000Y-89446730D01*
X167488858Y-89431844D01*
X167343524Y-89387757D01*
X167343521Y-89387756D01*
X167209584Y-89316165D01*
X167188531Y-89298887D01*
X167092183Y-89219817D01*
X166995836Y-89102416D01*
X166995835Y-89102415D01*
X166924244Y-88968478D01*
X166892202Y-88862850D01*
X166880156Y-88823141D01*
X166869000Y-88709871D01*
X166869000Y-88074128D01*
X166880156Y-87960858D01*
X166924243Y-87815524D01*
X166924243Y-87815523D01*
X166995837Y-87681582D01*
X167092184Y-87564183D01*
X167209585Y-87467835D01*
X167343522Y-87396244D01*
X167343525Y-87396243D01*
X167488859Y-87352156D01*
X167640000Y-87337270D01*
X167791142Y-87352156D01*
X167791142Y-87352156D01*
G37*
G36*
X142391142Y-87352156D02*
G01*
X142536476Y-87396243D01*
X142536479Y-87396244D01*
X142670416Y-87467835D01*
X142787817Y-87564183D01*
X142884165Y-87681584D01*
X142955756Y-87815521D01*
X142955757Y-87815524D01*
X142999844Y-87960858D01*
X143011000Y-88074128D01*
X143011000Y-88709872D01*
X142999844Y-88823142D01*
X142955757Y-88968475D01*
X142955756Y-88968479D01*
X142884165Y-89102416D01*
X142884164Y-89102417D01*
X142787817Y-89219817D01*
X142688268Y-89301514D01*
X142670415Y-89316165D01*
X142536478Y-89387756D01*
X142536475Y-89387757D01*
X142391141Y-89431844D01*
X142240000Y-89446730D01*
X142088858Y-89431844D01*
X141943524Y-89387757D01*
X141943521Y-89387756D01*
X141809584Y-89316165D01*
X141788531Y-89298887D01*
X141692183Y-89219817D01*
X141595836Y-89102416D01*
X141595835Y-89102415D01*
X141524244Y-88968478D01*
X141492202Y-88862850D01*
X141480156Y-88823141D01*
X141469000Y-88709871D01*
X141469000Y-88074128D01*
X141480156Y-87960858D01*
X141524243Y-87815524D01*
X141524243Y-87815523D01*
X141595837Y-87681582D01*
X141692184Y-87564183D01*
X141809585Y-87467835D01*
X141943522Y-87396244D01*
X141943525Y-87396243D01*
X142088859Y-87352156D01*
X142240000Y-87337270D01*
X142391142Y-87352156D01*
X142391142Y-87352156D01*
G37*
G36*
X175411142Y-87352156D02*
G01*
X175556476Y-87396243D01*
X175556479Y-87396244D01*
X175690416Y-87467835D01*
X175807817Y-87564183D01*
X175904165Y-87681584D01*
X175975756Y-87815521D01*
X175975757Y-87815524D01*
X176019844Y-87960858D01*
X176031000Y-88074128D01*
X176031000Y-88709872D01*
X176019844Y-88823142D01*
X175975757Y-88968475D01*
X175975756Y-88968479D01*
X175904165Y-89102416D01*
X175904164Y-89102417D01*
X175807817Y-89219817D01*
X175708268Y-89301514D01*
X175690415Y-89316165D01*
X175556478Y-89387756D01*
X175556475Y-89387757D01*
X175411141Y-89431844D01*
X175260000Y-89446730D01*
X175108858Y-89431844D01*
X174963524Y-89387757D01*
X174963521Y-89387756D01*
X174829584Y-89316165D01*
X174808531Y-89298887D01*
X174712183Y-89219817D01*
X174615836Y-89102416D01*
X174615835Y-89102415D01*
X174544244Y-88968478D01*
X174512202Y-88862850D01*
X174500156Y-88823141D01*
X174489000Y-88709871D01*
X174489000Y-88074128D01*
X174500156Y-87960858D01*
X174544243Y-87815524D01*
X174544243Y-87815523D01*
X174615837Y-87681582D01*
X174712184Y-87564183D01*
X174829585Y-87467835D01*
X174963522Y-87396244D01*
X174963525Y-87396243D01*
X175108859Y-87352156D01*
X175260000Y-87337270D01*
X175411142Y-87352156D01*
X175411142Y-87352156D01*
G37*
G36*
X177951142Y-87352156D02*
G01*
X178096476Y-87396243D01*
X178096479Y-87396244D01*
X178230416Y-87467835D01*
X178347817Y-87564183D01*
X178444165Y-87681584D01*
X178515756Y-87815521D01*
X178515757Y-87815524D01*
X178559844Y-87960858D01*
X178571000Y-88074128D01*
X178571000Y-88709872D01*
X178559844Y-88823142D01*
X178515757Y-88968475D01*
X178515756Y-88968479D01*
X178444165Y-89102416D01*
X178444164Y-89102417D01*
X178347817Y-89219817D01*
X178248268Y-89301514D01*
X178230415Y-89316165D01*
X178096478Y-89387756D01*
X178096475Y-89387757D01*
X177951141Y-89431844D01*
X177800000Y-89446730D01*
X177648858Y-89431844D01*
X177503524Y-89387757D01*
X177503521Y-89387756D01*
X177369584Y-89316165D01*
X177348531Y-89298887D01*
X177252183Y-89219817D01*
X177155836Y-89102416D01*
X177155835Y-89102415D01*
X177084244Y-88968478D01*
X177052202Y-88862850D01*
X177040156Y-88823141D01*
X177029000Y-88709871D01*
X177029000Y-88074128D01*
X177040156Y-87960858D01*
X177084243Y-87815524D01*
X177084243Y-87815523D01*
X177155837Y-87681582D01*
X177252184Y-87564183D01*
X177369585Y-87467835D01*
X177503522Y-87396244D01*
X177503525Y-87396243D01*
X177648859Y-87352156D01*
X177800000Y-87337270D01*
X177951142Y-87352156D01*
X177951142Y-87352156D01*
G37*
G36*
X165251142Y-87352156D02*
G01*
X165396476Y-87396243D01*
X165396479Y-87396244D01*
X165530416Y-87467835D01*
X165647817Y-87564183D01*
X165744165Y-87681584D01*
X165815756Y-87815521D01*
X165815757Y-87815524D01*
X165859844Y-87960858D01*
X165871000Y-88074128D01*
X165871000Y-88709872D01*
X165859844Y-88823142D01*
X165815757Y-88968475D01*
X165815756Y-88968479D01*
X165744165Y-89102416D01*
X165744164Y-89102417D01*
X165647817Y-89219817D01*
X165548268Y-89301514D01*
X165530415Y-89316165D01*
X165396478Y-89387756D01*
X165396475Y-89387757D01*
X165251141Y-89431844D01*
X165100000Y-89446730D01*
X164948858Y-89431844D01*
X164803524Y-89387757D01*
X164803521Y-89387756D01*
X164669584Y-89316165D01*
X164648531Y-89298887D01*
X164552183Y-89219817D01*
X164455836Y-89102416D01*
X164455835Y-89102415D01*
X164384244Y-88968478D01*
X164352202Y-88862850D01*
X164340156Y-88823141D01*
X164329000Y-88709871D01*
X164329000Y-88074128D01*
X164340156Y-87960858D01*
X164384243Y-87815524D01*
X164384243Y-87815523D01*
X164455837Y-87681582D01*
X164552184Y-87564183D01*
X164669585Y-87467835D01*
X164803522Y-87396244D01*
X164803525Y-87396243D01*
X164948859Y-87352156D01*
X165100000Y-87337270D01*
X165251142Y-87352156D01*
X165251142Y-87352156D01*
G37*
G36*
X162711142Y-87352156D02*
G01*
X162856476Y-87396243D01*
X162856479Y-87396244D01*
X162990416Y-87467835D01*
X163107817Y-87564183D01*
X163204165Y-87681584D01*
X163275756Y-87815521D01*
X163275757Y-87815524D01*
X163319844Y-87960858D01*
X163331000Y-88074128D01*
X163331000Y-88709872D01*
X163319844Y-88823142D01*
X163275757Y-88968475D01*
X163275756Y-88968479D01*
X163204165Y-89102416D01*
X163204164Y-89102417D01*
X163107817Y-89219817D01*
X163008268Y-89301514D01*
X162990415Y-89316165D01*
X162856478Y-89387756D01*
X162856475Y-89387757D01*
X162711141Y-89431844D01*
X162560000Y-89446730D01*
X162408858Y-89431844D01*
X162263524Y-89387757D01*
X162263521Y-89387756D01*
X162129584Y-89316165D01*
X162108531Y-89298887D01*
X162012183Y-89219817D01*
X161915836Y-89102416D01*
X161915835Y-89102415D01*
X161844244Y-88968478D01*
X161812202Y-88862850D01*
X161800156Y-88823141D01*
X161789000Y-88709871D01*
X161789000Y-88074128D01*
X161800156Y-87960858D01*
X161844243Y-87815524D01*
X161844243Y-87815523D01*
X161915837Y-87681582D01*
X162012184Y-87564183D01*
X162129585Y-87467835D01*
X162263522Y-87396244D01*
X162263525Y-87396243D01*
X162408859Y-87352156D01*
X162560000Y-87337270D01*
X162711142Y-87352156D01*
X162711142Y-87352156D01*
G37*
G36*
X160171142Y-87352156D02*
G01*
X160316476Y-87396243D01*
X160316479Y-87396244D01*
X160450416Y-87467835D01*
X160567817Y-87564183D01*
X160664165Y-87681584D01*
X160735756Y-87815521D01*
X160735757Y-87815524D01*
X160779844Y-87960858D01*
X160791000Y-88074128D01*
X160791000Y-88709872D01*
X160779844Y-88823142D01*
X160735757Y-88968475D01*
X160735756Y-88968479D01*
X160664165Y-89102416D01*
X160664164Y-89102417D01*
X160567817Y-89219817D01*
X160468268Y-89301514D01*
X160450415Y-89316165D01*
X160316478Y-89387756D01*
X160316475Y-89387757D01*
X160171141Y-89431844D01*
X160020000Y-89446730D01*
X159868858Y-89431844D01*
X159723524Y-89387757D01*
X159723521Y-89387756D01*
X159589584Y-89316165D01*
X159568531Y-89298887D01*
X159472183Y-89219817D01*
X159375836Y-89102416D01*
X159375835Y-89102415D01*
X159304244Y-88968478D01*
X159272202Y-88862850D01*
X159260156Y-88823141D01*
X159249000Y-88709871D01*
X159249000Y-88074128D01*
X159260156Y-87960858D01*
X159304243Y-87815524D01*
X159304243Y-87815523D01*
X159375837Y-87681582D01*
X159472184Y-87564183D01*
X159589585Y-87467835D01*
X159723522Y-87396244D01*
X159723525Y-87396243D01*
X159868859Y-87352156D01*
X160020000Y-87337270D01*
X160171142Y-87352156D01*
X160171142Y-87352156D01*
G37*
G36*
X157631142Y-87352156D02*
G01*
X157776476Y-87396243D01*
X157776479Y-87396244D01*
X157910416Y-87467835D01*
X158027817Y-87564183D01*
X158124165Y-87681584D01*
X158195756Y-87815521D01*
X158195757Y-87815524D01*
X158239844Y-87960858D01*
X158251000Y-88074128D01*
X158251000Y-88709872D01*
X158239844Y-88823142D01*
X158195757Y-88968475D01*
X158195756Y-88968479D01*
X158124165Y-89102416D01*
X158124164Y-89102417D01*
X158027817Y-89219817D01*
X157928268Y-89301514D01*
X157910415Y-89316165D01*
X157776478Y-89387756D01*
X157776475Y-89387757D01*
X157631141Y-89431844D01*
X157480000Y-89446730D01*
X157328858Y-89431844D01*
X157183524Y-89387757D01*
X157183521Y-89387756D01*
X157049584Y-89316165D01*
X157028531Y-89298887D01*
X156932183Y-89219817D01*
X156835836Y-89102416D01*
X156835835Y-89102415D01*
X156764244Y-88968478D01*
X156732202Y-88862850D01*
X156720156Y-88823141D01*
X156709000Y-88709871D01*
X156709000Y-88074128D01*
X156720156Y-87960858D01*
X156764243Y-87815524D01*
X156764243Y-87815523D01*
X156835837Y-87681582D01*
X156932184Y-87564183D01*
X157049585Y-87467835D01*
X157183522Y-87396244D01*
X157183525Y-87396243D01*
X157328859Y-87352156D01*
X157480000Y-87337270D01*
X157631142Y-87352156D01*
X157631142Y-87352156D01*
G37*
G36*
X155091142Y-87352156D02*
G01*
X155236476Y-87396243D01*
X155236479Y-87396244D01*
X155370416Y-87467835D01*
X155487817Y-87564183D01*
X155584165Y-87681584D01*
X155655756Y-87815521D01*
X155655757Y-87815524D01*
X155699844Y-87960858D01*
X155711000Y-88074128D01*
X155711000Y-88709872D01*
X155699844Y-88823142D01*
X155655757Y-88968475D01*
X155655756Y-88968479D01*
X155584165Y-89102416D01*
X155584164Y-89102417D01*
X155487817Y-89219817D01*
X155388268Y-89301514D01*
X155370415Y-89316165D01*
X155236478Y-89387756D01*
X155236475Y-89387757D01*
X155091141Y-89431844D01*
X154940000Y-89446730D01*
X154788858Y-89431844D01*
X154643524Y-89387757D01*
X154643521Y-89387756D01*
X154509584Y-89316165D01*
X154488531Y-89298887D01*
X154392183Y-89219817D01*
X154295836Y-89102416D01*
X154295835Y-89102415D01*
X154224244Y-88968478D01*
X154192202Y-88862850D01*
X154180156Y-88823141D01*
X154169000Y-88709871D01*
X154169000Y-88074128D01*
X154180156Y-87960858D01*
X154224243Y-87815524D01*
X154224243Y-87815523D01*
X154295837Y-87681582D01*
X154392184Y-87564183D01*
X154509585Y-87467835D01*
X154643522Y-87396244D01*
X154643525Y-87396243D01*
X154788859Y-87352156D01*
X154940000Y-87337270D01*
X155091142Y-87352156D01*
X155091142Y-87352156D01*
G37*
G36*
X152551142Y-87352156D02*
G01*
X152696476Y-87396243D01*
X152696479Y-87396244D01*
X152830416Y-87467835D01*
X152947817Y-87564183D01*
X153044165Y-87681584D01*
X153115756Y-87815521D01*
X153115757Y-87815524D01*
X153159844Y-87960858D01*
X153171000Y-88074128D01*
X153171000Y-88709872D01*
X153159844Y-88823142D01*
X153115757Y-88968475D01*
X153115756Y-88968479D01*
X153044165Y-89102416D01*
X153044164Y-89102417D01*
X152947817Y-89219817D01*
X152848268Y-89301514D01*
X152830415Y-89316165D01*
X152696478Y-89387756D01*
X152696475Y-89387757D01*
X152551141Y-89431844D01*
X152400000Y-89446730D01*
X152248858Y-89431844D01*
X152103524Y-89387757D01*
X152103521Y-89387756D01*
X151969584Y-89316165D01*
X151948531Y-89298887D01*
X151852183Y-89219817D01*
X151755836Y-89102416D01*
X151755835Y-89102415D01*
X151684244Y-88968478D01*
X151652202Y-88862850D01*
X151640156Y-88823141D01*
X151629000Y-88709871D01*
X151629000Y-88074128D01*
X151640156Y-87960858D01*
X151684243Y-87815524D01*
X151684243Y-87815523D01*
X151755837Y-87681582D01*
X151852184Y-87564183D01*
X151969585Y-87467835D01*
X152103522Y-87396244D01*
X152103525Y-87396243D01*
X152248859Y-87352156D01*
X152400000Y-87337270D01*
X152551142Y-87352156D01*
X152551142Y-87352156D01*
G37*
G36*
X150011142Y-87352156D02*
G01*
X150156476Y-87396243D01*
X150156479Y-87396244D01*
X150290416Y-87467835D01*
X150407817Y-87564183D01*
X150504165Y-87681584D01*
X150575756Y-87815521D01*
X150575757Y-87815524D01*
X150619844Y-87960858D01*
X150631000Y-88074128D01*
X150631000Y-88709872D01*
X150619844Y-88823142D01*
X150575757Y-88968475D01*
X150575756Y-88968479D01*
X150504165Y-89102416D01*
X150504164Y-89102417D01*
X150407817Y-89219817D01*
X150308268Y-89301514D01*
X150290415Y-89316165D01*
X150156478Y-89387756D01*
X150156475Y-89387757D01*
X150011141Y-89431844D01*
X149860000Y-89446730D01*
X149708858Y-89431844D01*
X149563524Y-89387757D01*
X149563521Y-89387756D01*
X149429584Y-89316165D01*
X149408531Y-89298887D01*
X149312183Y-89219817D01*
X149215836Y-89102416D01*
X149215835Y-89102415D01*
X149144244Y-88968478D01*
X149112202Y-88862850D01*
X149100156Y-88823141D01*
X149089000Y-88709871D01*
X149089000Y-88074128D01*
X149100156Y-87960858D01*
X149144243Y-87815524D01*
X149144243Y-87815523D01*
X149215837Y-87681582D01*
X149312184Y-87564183D01*
X149429585Y-87467835D01*
X149563522Y-87396244D01*
X149563525Y-87396243D01*
X149708859Y-87352156D01*
X149860000Y-87337270D01*
X150011142Y-87352156D01*
X150011142Y-87352156D01*
G37*
G36*
X170331142Y-87352156D02*
G01*
X170476476Y-87396243D01*
X170476479Y-87396244D01*
X170610416Y-87467835D01*
X170727817Y-87564183D01*
X170824165Y-87681584D01*
X170895756Y-87815521D01*
X170895757Y-87815524D01*
X170939844Y-87960858D01*
X170951000Y-88074128D01*
X170951000Y-88709872D01*
X170939844Y-88823142D01*
X170895757Y-88968475D01*
X170895756Y-88968479D01*
X170824165Y-89102416D01*
X170824164Y-89102417D01*
X170727817Y-89219817D01*
X170628268Y-89301514D01*
X170610415Y-89316165D01*
X170476478Y-89387756D01*
X170476475Y-89387757D01*
X170331141Y-89431844D01*
X170180000Y-89446730D01*
X170028858Y-89431844D01*
X169883524Y-89387757D01*
X169883521Y-89387756D01*
X169749584Y-89316165D01*
X169728531Y-89298887D01*
X169632183Y-89219817D01*
X169535836Y-89102416D01*
X169535835Y-89102415D01*
X169464244Y-88968478D01*
X169432202Y-88862850D01*
X169420156Y-88823141D01*
X169409000Y-88709871D01*
X169409000Y-88074128D01*
X169420156Y-87960858D01*
X169464243Y-87815524D01*
X169464243Y-87815523D01*
X169535837Y-87681582D01*
X169632184Y-87564183D01*
X169749585Y-87467835D01*
X169883522Y-87396244D01*
X169883525Y-87396243D01*
X170028859Y-87352156D01*
X170180000Y-87337270D01*
X170331142Y-87352156D01*
X170331142Y-87352156D01*
G37*
G36*
X147471142Y-87352156D02*
G01*
X147616476Y-87396243D01*
X147616479Y-87396244D01*
X147750416Y-87467835D01*
X147867817Y-87564183D01*
X147964165Y-87681584D01*
X148035756Y-87815521D01*
X148035757Y-87815524D01*
X148079844Y-87960858D01*
X148091000Y-88074128D01*
X148091000Y-88709872D01*
X148079844Y-88823142D01*
X148035757Y-88968475D01*
X148035756Y-88968479D01*
X147964165Y-89102416D01*
X147964164Y-89102417D01*
X147867817Y-89219817D01*
X147768268Y-89301514D01*
X147750415Y-89316165D01*
X147616478Y-89387756D01*
X147616475Y-89387757D01*
X147471141Y-89431844D01*
X147320000Y-89446730D01*
X147168858Y-89431844D01*
X147023524Y-89387757D01*
X147023521Y-89387756D01*
X146889584Y-89316165D01*
X146868531Y-89298887D01*
X146772183Y-89219817D01*
X146675836Y-89102416D01*
X146675835Y-89102415D01*
X146604244Y-88968478D01*
X146572202Y-88862850D01*
X146560156Y-88823141D01*
X146549000Y-88709871D01*
X146549000Y-88074128D01*
X146560156Y-87960858D01*
X146604243Y-87815524D01*
X146604243Y-87815523D01*
X146675837Y-87681582D01*
X146772184Y-87564183D01*
X146889585Y-87467835D01*
X147023522Y-87396244D01*
X147023525Y-87396243D01*
X147168859Y-87352156D01*
X147320000Y-87337270D01*
X147471142Y-87352156D01*
X147471142Y-87352156D01*
G37*
G36*
X144931142Y-87352156D02*
G01*
X145076476Y-87396243D01*
X145076479Y-87396244D01*
X145210416Y-87467835D01*
X145327817Y-87564183D01*
X145424165Y-87681584D01*
X145495756Y-87815521D01*
X145495757Y-87815524D01*
X145539844Y-87960858D01*
X145551000Y-88074128D01*
X145551000Y-88709872D01*
X145539844Y-88823142D01*
X145495757Y-88968475D01*
X145495756Y-88968479D01*
X145424165Y-89102416D01*
X145424164Y-89102417D01*
X145327817Y-89219817D01*
X145228268Y-89301514D01*
X145210415Y-89316165D01*
X145076478Y-89387756D01*
X145076475Y-89387757D01*
X144931141Y-89431844D01*
X144780000Y-89446730D01*
X144628858Y-89431844D01*
X144483524Y-89387757D01*
X144483521Y-89387756D01*
X144349584Y-89316165D01*
X144328531Y-89298887D01*
X144232183Y-89219817D01*
X144135836Y-89102416D01*
X144135835Y-89102415D01*
X144064244Y-88968478D01*
X144032202Y-88862850D01*
X144020156Y-88823141D01*
X144009000Y-88709871D01*
X144009000Y-88074128D01*
X144020156Y-87960858D01*
X144064243Y-87815524D01*
X144064243Y-87815523D01*
X144135837Y-87681582D01*
X144232184Y-87564183D01*
X144349585Y-87467835D01*
X144483522Y-87396244D01*
X144483525Y-87396243D01*
X144628859Y-87352156D01*
X144780000Y-87337270D01*
X144931142Y-87352156D01*
X144931142Y-87352156D01*
G37*
G36*
X190651142Y-87352156D02*
G01*
X190796476Y-87396243D01*
X190796479Y-87396244D01*
X190930416Y-87467835D01*
X191047817Y-87564183D01*
X191144165Y-87681584D01*
X191215756Y-87815521D01*
X191215757Y-87815524D01*
X191259844Y-87960858D01*
X191271000Y-88074128D01*
X191271000Y-88709872D01*
X191259844Y-88823142D01*
X191215757Y-88968475D01*
X191215756Y-88968479D01*
X191144165Y-89102416D01*
X191144164Y-89102417D01*
X191047817Y-89219817D01*
X190948268Y-89301514D01*
X190930415Y-89316165D01*
X190796478Y-89387756D01*
X190796475Y-89387757D01*
X190651141Y-89431844D01*
X190500000Y-89446730D01*
X190348858Y-89431844D01*
X190203524Y-89387757D01*
X190203521Y-89387756D01*
X190069584Y-89316165D01*
X190048531Y-89298887D01*
X189952183Y-89219817D01*
X189855836Y-89102416D01*
X189855835Y-89102415D01*
X189784244Y-88968478D01*
X189752202Y-88862850D01*
X189740156Y-88823141D01*
X189729000Y-88709871D01*
X189729000Y-88074128D01*
X189740156Y-87960858D01*
X189784243Y-87815524D01*
X189784243Y-87815523D01*
X189855837Y-87681582D01*
X189952184Y-87564183D01*
X190069585Y-87467835D01*
X190203522Y-87396244D01*
X190203525Y-87396243D01*
X190348859Y-87352156D01*
X190500000Y-87337270D01*
X190651142Y-87352156D01*
X190651142Y-87352156D01*
G37*
G36*
X188111142Y-87352156D02*
G01*
X188256476Y-87396243D01*
X188256479Y-87396244D01*
X188390416Y-87467835D01*
X188507817Y-87564183D01*
X188604165Y-87681584D01*
X188675756Y-87815521D01*
X188675757Y-87815524D01*
X188719844Y-87960858D01*
X188731000Y-88074128D01*
X188731000Y-88709872D01*
X188719844Y-88823142D01*
X188675757Y-88968475D01*
X188675756Y-88968479D01*
X188604165Y-89102416D01*
X188604164Y-89102417D01*
X188507817Y-89219817D01*
X188408268Y-89301514D01*
X188390415Y-89316165D01*
X188256478Y-89387756D01*
X188256475Y-89387757D01*
X188111141Y-89431844D01*
X187960000Y-89446730D01*
X187808858Y-89431844D01*
X187663524Y-89387757D01*
X187663521Y-89387756D01*
X187529584Y-89316165D01*
X187508531Y-89298887D01*
X187412183Y-89219817D01*
X187315836Y-89102416D01*
X187315835Y-89102415D01*
X187244244Y-88968478D01*
X187212202Y-88862850D01*
X187200156Y-88823141D01*
X187189000Y-88709871D01*
X187189000Y-88074128D01*
X187200156Y-87960858D01*
X187244243Y-87815524D01*
X187244243Y-87815523D01*
X187315837Y-87681582D01*
X187412184Y-87564183D01*
X187529585Y-87467835D01*
X187663522Y-87396244D01*
X187663525Y-87396243D01*
X187808859Y-87352156D01*
X187960000Y-87337270D01*
X188111142Y-87352156D01*
X188111142Y-87352156D01*
G37*
G36*
X185571142Y-87352156D02*
G01*
X185716476Y-87396243D01*
X185716479Y-87396244D01*
X185850416Y-87467835D01*
X185967817Y-87564183D01*
X186064165Y-87681584D01*
X186135756Y-87815521D01*
X186135757Y-87815524D01*
X186179844Y-87960858D01*
X186191000Y-88074128D01*
X186191000Y-88709872D01*
X186179844Y-88823142D01*
X186135757Y-88968475D01*
X186135756Y-88968479D01*
X186064165Y-89102416D01*
X186064164Y-89102417D01*
X185967817Y-89219817D01*
X185868268Y-89301514D01*
X185850415Y-89316165D01*
X185716478Y-89387756D01*
X185716475Y-89387757D01*
X185571141Y-89431844D01*
X185420000Y-89446730D01*
X185268858Y-89431844D01*
X185123524Y-89387757D01*
X185123521Y-89387756D01*
X184989584Y-89316165D01*
X184968531Y-89298887D01*
X184872183Y-89219817D01*
X184775836Y-89102416D01*
X184775835Y-89102415D01*
X184704244Y-88968478D01*
X184672202Y-88862850D01*
X184660156Y-88823141D01*
X184649000Y-88709871D01*
X184649000Y-88074128D01*
X184660156Y-87960858D01*
X184704243Y-87815524D01*
X184704243Y-87815523D01*
X184775837Y-87681582D01*
X184872184Y-87564183D01*
X184989585Y-87467835D01*
X185123522Y-87396244D01*
X185123525Y-87396243D01*
X185268859Y-87352156D01*
X185420000Y-87337270D01*
X185571142Y-87352156D01*
X185571142Y-87352156D01*
G37*
G36*
X183031142Y-87352156D02*
G01*
X183176476Y-87396243D01*
X183176479Y-87396244D01*
X183310416Y-87467835D01*
X183427817Y-87564183D01*
X183524165Y-87681584D01*
X183595756Y-87815521D01*
X183595757Y-87815524D01*
X183639844Y-87960858D01*
X183651000Y-88074128D01*
X183651000Y-88709872D01*
X183639844Y-88823142D01*
X183595757Y-88968475D01*
X183595756Y-88968479D01*
X183524165Y-89102416D01*
X183524164Y-89102417D01*
X183427817Y-89219817D01*
X183328268Y-89301514D01*
X183310415Y-89316165D01*
X183176478Y-89387756D01*
X183176475Y-89387757D01*
X183031141Y-89431844D01*
X182880000Y-89446730D01*
X182728858Y-89431844D01*
X182583524Y-89387757D01*
X182583521Y-89387756D01*
X182449584Y-89316165D01*
X182428531Y-89298887D01*
X182332183Y-89219817D01*
X182235836Y-89102416D01*
X182235835Y-89102415D01*
X182164244Y-88968478D01*
X182132202Y-88862850D01*
X182120156Y-88823141D01*
X182109000Y-88709871D01*
X182109000Y-88074128D01*
X182120156Y-87960858D01*
X182164243Y-87815524D01*
X182164243Y-87815523D01*
X182235837Y-87681582D01*
X182332184Y-87564183D01*
X182449585Y-87467835D01*
X182583522Y-87396244D01*
X182583525Y-87396243D01*
X182728859Y-87352156D01*
X182880000Y-87337270D01*
X183031142Y-87352156D01*
X183031142Y-87352156D01*
G37*
G36*
X172871142Y-87352156D02*
G01*
X173016476Y-87396243D01*
X173016479Y-87396244D01*
X173150416Y-87467835D01*
X173267817Y-87564183D01*
X173364165Y-87681584D01*
X173435756Y-87815521D01*
X173435757Y-87815524D01*
X173479844Y-87960858D01*
X173491000Y-88074128D01*
X173491000Y-88709872D01*
X173479844Y-88823142D01*
X173435757Y-88968475D01*
X173435756Y-88968479D01*
X173364165Y-89102416D01*
X173364164Y-89102417D01*
X173267817Y-89219817D01*
X173168268Y-89301514D01*
X173150415Y-89316165D01*
X173016478Y-89387756D01*
X173016475Y-89387757D01*
X172871141Y-89431844D01*
X172720000Y-89446730D01*
X172568858Y-89431844D01*
X172423524Y-89387757D01*
X172423521Y-89387756D01*
X172289584Y-89316165D01*
X172268531Y-89298887D01*
X172172183Y-89219817D01*
X172075836Y-89102416D01*
X172075835Y-89102415D01*
X172004244Y-88968478D01*
X171972202Y-88862850D01*
X171960156Y-88823141D01*
X171949000Y-88709871D01*
X171949000Y-88074128D01*
X171960156Y-87960858D01*
X172004243Y-87815524D01*
X172004243Y-87815523D01*
X172075837Y-87681582D01*
X172172184Y-87564183D01*
X172289585Y-87467835D01*
X172423522Y-87396244D01*
X172423525Y-87396243D01*
X172568859Y-87352156D01*
X172720000Y-87337270D01*
X172871142Y-87352156D01*
X172871142Y-87352156D01*
G37*
G36*
X180491142Y-87352156D02*
G01*
X180636476Y-87396243D01*
X180636479Y-87396244D01*
X180770416Y-87467835D01*
X180887817Y-87564183D01*
X180984165Y-87681584D01*
X181055756Y-87815521D01*
X181055757Y-87815524D01*
X181099844Y-87960858D01*
X181111000Y-88074128D01*
X181111000Y-88709872D01*
X181099844Y-88823142D01*
X181055757Y-88968475D01*
X181055756Y-88968479D01*
X180984165Y-89102416D01*
X180984164Y-89102417D01*
X180887817Y-89219817D01*
X180788268Y-89301514D01*
X180770415Y-89316165D01*
X180636478Y-89387756D01*
X180636475Y-89387757D01*
X180491141Y-89431844D01*
X180340000Y-89446730D01*
X180188858Y-89431844D01*
X180043524Y-89387757D01*
X180043521Y-89387756D01*
X179909584Y-89316165D01*
X179888531Y-89298887D01*
X179792183Y-89219817D01*
X179695836Y-89102416D01*
X179695835Y-89102415D01*
X179624244Y-88968478D01*
X179592202Y-88862850D01*
X179580156Y-88823141D01*
X179569000Y-88709871D01*
X179569000Y-88074128D01*
X179580156Y-87960858D01*
X179624243Y-87815524D01*
X179624243Y-87815523D01*
X179695837Y-87681582D01*
X179792184Y-87564183D01*
X179909585Y-87467835D01*
X180043522Y-87396244D01*
X180043525Y-87396243D01*
X180188859Y-87352156D01*
X180340000Y-87337270D01*
X180491142Y-87352156D01*
X180491142Y-87352156D01*
G37*
G36*
X194167295Y-87311634D02*
G01*
X194339696Y-87363932D01*
X194498584Y-87448859D01*
X194637850Y-87563152D01*
X194752143Y-87702418D01*
X194837070Y-87861306D01*
X194889368Y-88033707D01*
X194907026Y-88213001D01*
X194889368Y-88392295D01*
X194837070Y-88564696D01*
X194752143Y-88723584D01*
X194637850Y-88862850D01*
X194498584Y-88977143D01*
X194339696Y-89062070D01*
X194167295Y-89114368D01*
X194032932Y-89127601D01*
X193943070Y-89127601D01*
X193808707Y-89114368D01*
X193636306Y-89062070D01*
X193477418Y-88977143D01*
X193338152Y-88862850D01*
X193223859Y-88723584D01*
X193138932Y-88564696D01*
X193086634Y-88392295D01*
X193068976Y-88213001D01*
X193086634Y-88033707D01*
X193138932Y-87861306D01*
X193223859Y-87702418D01*
X193338152Y-87563152D01*
X193477418Y-87448859D01*
X193636306Y-87363932D01*
X193808707Y-87311634D01*
X193943070Y-87298401D01*
X194032932Y-87298401D01*
X194167295Y-87311634D01*
X194167295Y-87311634D01*
G37*
G36*
X196707295Y-87311634D02*
G01*
X196879696Y-87363932D01*
X197038584Y-87448859D01*
X197177850Y-87563152D01*
X197292143Y-87702418D01*
X197377070Y-87861306D01*
X197429368Y-88033707D01*
X197447026Y-88213001D01*
X197429368Y-88392295D01*
X197377070Y-88564696D01*
X197292143Y-88723584D01*
X197177850Y-88862850D01*
X197038584Y-88977143D01*
X196879696Y-89062070D01*
X196707295Y-89114368D01*
X196572932Y-89127601D01*
X196483070Y-89127601D01*
X196348707Y-89114368D01*
X196176306Y-89062070D01*
X196017418Y-88977143D01*
X195878152Y-88862850D01*
X195763859Y-88723584D01*
X195678932Y-88564696D01*
X195626634Y-88392295D01*
X195608976Y-88213001D01*
X195626634Y-88033707D01*
X195678932Y-87861306D01*
X195763859Y-87702418D01*
X195878152Y-87563152D01*
X196017418Y-87448859D01*
X196176306Y-87363932D01*
X196348707Y-87311634D01*
X196483070Y-87298401D01*
X196572932Y-87298401D01*
X196707295Y-87311634D01*
X196707295Y-87311634D01*
G37*
G36*
X196707295Y-84771634D02*
G01*
X196879696Y-84823932D01*
X197038584Y-84908859D01*
X197177850Y-85023152D01*
X197292143Y-85162418D01*
X197377070Y-85321306D01*
X197429368Y-85493707D01*
X197447026Y-85673001D01*
X197429368Y-85852295D01*
X197377070Y-86024696D01*
X197292143Y-86183584D01*
X197177850Y-86322850D01*
X197038584Y-86437143D01*
X196879696Y-86522070D01*
X196707295Y-86574368D01*
X196572932Y-86587601D01*
X196483070Y-86587601D01*
X196348707Y-86574368D01*
X196176306Y-86522070D01*
X196017418Y-86437143D01*
X195878152Y-86322850D01*
X195763859Y-86183584D01*
X195678932Y-86024696D01*
X195626634Y-85852295D01*
X195608976Y-85673001D01*
X195626634Y-85493707D01*
X195678932Y-85321306D01*
X195763859Y-85162418D01*
X195878152Y-85023152D01*
X196017418Y-84908859D01*
X196176306Y-84823932D01*
X196348707Y-84771634D01*
X196483070Y-84758401D01*
X196572932Y-84758401D01*
X196707295Y-84771634D01*
X196707295Y-84771634D01*
G37*
G36*
X194167295Y-84771634D02*
G01*
X194339696Y-84823932D01*
X194498584Y-84908859D01*
X194637850Y-85023152D01*
X194752143Y-85162418D01*
X194837070Y-85321306D01*
X194889368Y-85493707D01*
X194907026Y-85673001D01*
X194889368Y-85852295D01*
X194837070Y-86024696D01*
X194752143Y-86183584D01*
X194637850Y-86322850D01*
X194498584Y-86437143D01*
X194339696Y-86522070D01*
X194167295Y-86574368D01*
X194032932Y-86587601D01*
X193943070Y-86587601D01*
X193808707Y-86574368D01*
X193636306Y-86522070D01*
X193477418Y-86437143D01*
X193338152Y-86322850D01*
X193223859Y-86183584D01*
X193138932Y-86024696D01*
X193086634Y-85852295D01*
X193068976Y-85673001D01*
X193086634Y-85493707D01*
X193138932Y-85321306D01*
X193223859Y-85162418D01*
X193338152Y-85023152D01*
X193477418Y-84908859D01*
X193636306Y-84823932D01*
X193808707Y-84771634D01*
X193943070Y-84758401D01*
X194032932Y-84758401D01*
X194167295Y-84771634D01*
X194167295Y-84771634D01*
G37*
G36*
X190900499Y-84568445D02*
G01*
X190937995Y-84579820D01*
X190972554Y-84598292D01*
X191002847Y-84623153D01*
X191027708Y-84653446D01*
X191046180Y-84688005D01*
X191057555Y-84725501D01*
X191062000Y-84770638D01*
X191062000Y-85409362D01*
X191057555Y-85454499D01*
X191046180Y-85491995D01*
X191027708Y-85526554D01*
X191002847Y-85556847D01*
X190972554Y-85581708D01*
X190937995Y-85600180D01*
X190900499Y-85611555D01*
X190855362Y-85616000D01*
X190116638Y-85616000D01*
X190071501Y-85611555D01*
X190034005Y-85600180D01*
X189999446Y-85581708D01*
X189969153Y-85556847D01*
X189944292Y-85526554D01*
X189925820Y-85491995D01*
X189914445Y-85454499D01*
X189910000Y-85409362D01*
X189910000Y-84770638D01*
X189914445Y-84725501D01*
X189925820Y-84688005D01*
X189944292Y-84653446D01*
X189969153Y-84623153D01*
X189999446Y-84598292D01*
X190034005Y-84579820D01*
X190071501Y-84568445D01*
X190116638Y-84564000D01*
X190855362Y-84564000D01*
X190900499Y-84568445D01*
X190900499Y-84568445D01*
G37*
G36*
X189150499Y-84568445D02*
G01*
X189187995Y-84579820D01*
X189222554Y-84598292D01*
X189252847Y-84623153D01*
X189277708Y-84653446D01*
X189296180Y-84688005D01*
X189307555Y-84725501D01*
X189312000Y-84770638D01*
X189312000Y-85409362D01*
X189307555Y-85454499D01*
X189296180Y-85491995D01*
X189277708Y-85526554D01*
X189252847Y-85556847D01*
X189222554Y-85581708D01*
X189187995Y-85600180D01*
X189150499Y-85611555D01*
X189105362Y-85616000D01*
X188366638Y-85616000D01*
X188321501Y-85611555D01*
X188284005Y-85600180D01*
X188249446Y-85581708D01*
X188219153Y-85556847D01*
X188194292Y-85526554D01*
X188175820Y-85491995D01*
X188164445Y-85454499D01*
X188160000Y-85409362D01*
X188160000Y-84770638D01*
X188164445Y-84725501D01*
X188175820Y-84688005D01*
X188194292Y-84653446D01*
X188219153Y-84623153D01*
X188249446Y-84598292D01*
X188284005Y-84579820D01*
X188321501Y-84568445D01*
X188366638Y-84564000D01*
X189105362Y-84564000D01*
X189150499Y-84568445D01*
X189150499Y-84568445D01*
G37*
G36*
X194167295Y-82231634D02*
G01*
X194339696Y-82283932D01*
X194498584Y-82368859D01*
X194637850Y-82483152D01*
X194752143Y-82622418D01*
X194837070Y-82781306D01*
X194889368Y-82953707D01*
X194907026Y-83133001D01*
X194889368Y-83312295D01*
X194837070Y-83484696D01*
X194752143Y-83643584D01*
X194637850Y-83782850D01*
X194498584Y-83897143D01*
X194339696Y-83982070D01*
X194167295Y-84034368D01*
X194032932Y-84047601D01*
X193943070Y-84047601D01*
X193808707Y-84034368D01*
X193636306Y-83982070D01*
X193477418Y-83897143D01*
X193338152Y-83782850D01*
X193223859Y-83643584D01*
X193138932Y-83484696D01*
X193086634Y-83312295D01*
X193068976Y-83133001D01*
X193086634Y-82953707D01*
X193138932Y-82781306D01*
X193223859Y-82622418D01*
X193338152Y-82483152D01*
X193477418Y-82368859D01*
X193636306Y-82283932D01*
X193808707Y-82231634D01*
X193943070Y-82218401D01*
X194032932Y-82218401D01*
X194167295Y-82231634D01*
X194167295Y-82231634D01*
G37*
G36*
X196707295Y-82231634D02*
G01*
X196879696Y-82283932D01*
X197038584Y-82368859D01*
X197177850Y-82483152D01*
X197292143Y-82622418D01*
X197377070Y-82781306D01*
X197429368Y-82953707D01*
X197447026Y-83133001D01*
X197429368Y-83312295D01*
X197377070Y-83484696D01*
X197292143Y-83643584D01*
X197177850Y-83782850D01*
X197038584Y-83897143D01*
X196879696Y-83982070D01*
X196707295Y-84034368D01*
X196572932Y-84047601D01*
X196483070Y-84047601D01*
X196348707Y-84034368D01*
X196176306Y-83982070D01*
X196017418Y-83897143D01*
X195878152Y-83782850D01*
X195763859Y-83643584D01*
X195678932Y-83484696D01*
X195626634Y-83312295D01*
X195608976Y-83133001D01*
X195626634Y-82953707D01*
X195678932Y-82781306D01*
X195763859Y-82622418D01*
X195878152Y-82483152D01*
X196017418Y-82368859D01*
X196176306Y-82283932D01*
X196348707Y-82231634D01*
X196483070Y-82218401D01*
X196572932Y-82218401D01*
X196707295Y-82231634D01*
X196707295Y-82231634D01*
G37*
G36*
X196776257Y-76444299D02*
G01*
X196882580Y-76465448D01*
X197183043Y-76589904D01*
X197453452Y-76770586D01*
X197683416Y-77000550D01*
X197864098Y-77270959D01*
X197988554Y-77571422D01*
X198052001Y-77890392D01*
X198052001Y-78215610D01*
X197988554Y-78534580D01*
X197864098Y-78835043D01*
X197683416Y-79105452D01*
X197453452Y-79335416D01*
X197183043Y-79516098D01*
X196882580Y-79640554D01*
X196776257Y-79661703D01*
X196563612Y-79704001D01*
X196238390Y-79704001D01*
X196025745Y-79661703D01*
X195919422Y-79640554D01*
X195618959Y-79516098D01*
X195348550Y-79335416D01*
X195118586Y-79105452D01*
X194937904Y-78835043D01*
X194813448Y-78534580D01*
X194750001Y-78215610D01*
X194750001Y-77890392D01*
X194813448Y-77571422D01*
X194937904Y-77270959D01*
X195118586Y-77000550D01*
X195348550Y-76770586D01*
X195618959Y-76589904D01*
X195919422Y-76465448D01*
X196025745Y-76444299D01*
X196238390Y-76402001D01*
X196563612Y-76402001D01*
X196776257Y-76444299D01*
X196776257Y-76444299D01*
G37*
G36*
X185571142Y-72112156D02*
G01*
X185716476Y-72156243D01*
X185716479Y-72156244D01*
X185850416Y-72227835D01*
X185967817Y-72324183D01*
X186064165Y-72441584D01*
X186135756Y-72575521D01*
X186135757Y-72575524D01*
X186179844Y-72720858D01*
X186191000Y-72834128D01*
X186191000Y-73469872D01*
X186179844Y-73583142D01*
X186135757Y-73728475D01*
X186135756Y-73728479D01*
X186064165Y-73862416D01*
X186064164Y-73862417D01*
X185967817Y-73979817D01*
X185868268Y-74061514D01*
X185850415Y-74076165D01*
X185716478Y-74147756D01*
X185716475Y-74147757D01*
X185571141Y-74191844D01*
X185420000Y-74206730D01*
X185268858Y-74191844D01*
X185123524Y-74147757D01*
X185123521Y-74147756D01*
X184989584Y-74076165D01*
X184968531Y-74058887D01*
X184872183Y-73979817D01*
X184775836Y-73862416D01*
X184704245Y-73728479D01*
X184704244Y-73728478D01*
X184704243Y-73728475D01*
X184660156Y-73583141D01*
X184649000Y-73469871D01*
X184649000Y-72834128D01*
X184660156Y-72720858D01*
X184704243Y-72575524D01*
X184704243Y-72575523D01*
X184775837Y-72441582D01*
X184872184Y-72324183D01*
X184989585Y-72227835D01*
X185123522Y-72156244D01*
X185123525Y-72156243D01*
X185268859Y-72112156D01*
X185420000Y-72097270D01*
X185571142Y-72112156D01*
X185571142Y-72112156D01*
G37*
G36*
X170331142Y-72112156D02*
G01*
X170476476Y-72156243D01*
X170476479Y-72156244D01*
X170610416Y-72227835D01*
X170727817Y-72324183D01*
X170824165Y-72441584D01*
X170895756Y-72575521D01*
X170895757Y-72575524D01*
X170939844Y-72720858D01*
X170951000Y-72834128D01*
X170951000Y-73469872D01*
X170939844Y-73583142D01*
X170895757Y-73728475D01*
X170895756Y-73728479D01*
X170824165Y-73862416D01*
X170824164Y-73862417D01*
X170727817Y-73979817D01*
X170628268Y-74061514D01*
X170610415Y-74076165D01*
X170476478Y-74147756D01*
X170476475Y-74147757D01*
X170331141Y-74191844D01*
X170180000Y-74206730D01*
X170028858Y-74191844D01*
X169883524Y-74147757D01*
X169883521Y-74147756D01*
X169749584Y-74076165D01*
X169728531Y-74058887D01*
X169632183Y-73979817D01*
X169535836Y-73862416D01*
X169464245Y-73728479D01*
X169464244Y-73728478D01*
X169464243Y-73728475D01*
X169420156Y-73583141D01*
X169409000Y-73469871D01*
X169409000Y-72834128D01*
X169420156Y-72720858D01*
X169464243Y-72575524D01*
X169464243Y-72575523D01*
X169535837Y-72441582D01*
X169632184Y-72324183D01*
X169749585Y-72227835D01*
X169883522Y-72156244D01*
X169883525Y-72156243D01*
X170028859Y-72112156D01*
X170180000Y-72097270D01*
X170331142Y-72112156D01*
X170331142Y-72112156D01*
G37*
G36*
X183031142Y-72112156D02*
G01*
X183176476Y-72156243D01*
X183176479Y-72156244D01*
X183310416Y-72227835D01*
X183427817Y-72324183D01*
X183524165Y-72441584D01*
X183595756Y-72575521D01*
X183595757Y-72575524D01*
X183639844Y-72720858D01*
X183651000Y-72834128D01*
X183651000Y-73469872D01*
X183639844Y-73583142D01*
X183595757Y-73728475D01*
X183595756Y-73728479D01*
X183524165Y-73862416D01*
X183524164Y-73862417D01*
X183427817Y-73979817D01*
X183328268Y-74061514D01*
X183310415Y-74076165D01*
X183176478Y-74147756D01*
X183176475Y-74147757D01*
X183031141Y-74191844D01*
X182880000Y-74206730D01*
X182728858Y-74191844D01*
X182583524Y-74147757D01*
X182583521Y-74147756D01*
X182449584Y-74076165D01*
X182428531Y-74058887D01*
X182332183Y-73979817D01*
X182235836Y-73862416D01*
X182164245Y-73728479D01*
X182164244Y-73728478D01*
X182164243Y-73728475D01*
X182120156Y-73583141D01*
X182109000Y-73469871D01*
X182109000Y-72834128D01*
X182120156Y-72720858D01*
X182164243Y-72575524D01*
X182164243Y-72575523D01*
X182235837Y-72441582D01*
X182332184Y-72324183D01*
X182449585Y-72227835D01*
X182583522Y-72156244D01*
X182583525Y-72156243D01*
X182728859Y-72112156D01*
X182880000Y-72097270D01*
X183031142Y-72112156D01*
X183031142Y-72112156D01*
G37*
G36*
X177951142Y-72112156D02*
G01*
X178096476Y-72156243D01*
X178096479Y-72156244D01*
X178230416Y-72227835D01*
X178347817Y-72324183D01*
X178444165Y-72441584D01*
X178515756Y-72575521D01*
X178515757Y-72575524D01*
X178559844Y-72720858D01*
X178571000Y-72834128D01*
X178571000Y-73469872D01*
X178559844Y-73583142D01*
X178515757Y-73728475D01*
X178515756Y-73728479D01*
X178444165Y-73862416D01*
X178444164Y-73862417D01*
X178347817Y-73979817D01*
X178248268Y-74061514D01*
X178230415Y-74076165D01*
X178096478Y-74147756D01*
X178096475Y-74147757D01*
X177951141Y-74191844D01*
X177800000Y-74206730D01*
X177648858Y-74191844D01*
X177503524Y-74147757D01*
X177503521Y-74147756D01*
X177369584Y-74076165D01*
X177348531Y-74058887D01*
X177252183Y-73979817D01*
X177155836Y-73862416D01*
X177084245Y-73728479D01*
X177084244Y-73728478D01*
X177084243Y-73728475D01*
X177040156Y-73583141D01*
X177029000Y-73469871D01*
X177029000Y-72834128D01*
X177040156Y-72720858D01*
X177084243Y-72575524D01*
X177084243Y-72575523D01*
X177155837Y-72441582D01*
X177252184Y-72324183D01*
X177369585Y-72227835D01*
X177503522Y-72156244D01*
X177503525Y-72156243D01*
X177648859Y-72112156D01*
X177800000Y-72097270D01*
X177951142Y-72112156D01*
X177951142Y-72112156D01*
G37*
G36*
X180491142Y-72112156D02*
G01*
X180636476Y-72156243D01*
X180636479Y-72156244D01*
X180770416Y-72227835D01*
X180887817Y-72324183D01*
X180984165Y-72441584D01*
X181055756Y-72575521D01*
X181055757Y-72575524D01*
X181099844Y-72720858D01*
X181111000Y-72834128D01*
X181111000Y-73469872D01*
X181099844Y-73583142D01*
X181055757Y-73728475D01*
X181055756Y-73728479D01*
X180984165Y-73862416D01*
X180984164Y-73862417D01*
X180887817Y-73979817D01*
X180788268Y-74061514D01*
X180770415Y-74076165D01*
X180636478Y-74147756D01*
X180636475Y-74147757D01*
X180491141Y-74191844D01*
X180340000Y-74206730D01*
X180188858Y-74191844D01*
X180043524Y-74147757D01*
X180043521Y-74147756D01*
X179909584Y-74076165D01*
X179888531Y-74058887D01*
X179792183Y-73979817D01*
X179695836Y-73862416D01*
X179624245Y-73728479D01*
X179624244Y-73728478D01*
X179624243Y-73728475D01*
X179580156Y-73583141D01*
X179569000Y-73469871D01*
X179569000Y-72834128D01*
X179580156Y-72720858D01*
X179624243Y-72575524D01*
X179624243Y-72575523D01*
X179695837Y-72441582D01*
X179792184Y-72324183D01*
X179909585Y-72227835D01*
X180043522Y-72156244D01*
X180043525Y-72156243D01*
X180188859Y-72112156D01*
X180340000Y-72097270D01*
X180491142Y-72112156D01*
X180491142Y-72112156D01*
G37*
G36*
X167791142Y-72112156D02*
G01*
X167936476Y-72156243D01*
X167936479Y-72156244D01*
X168070416Y-72227835D01*
X168187817Y-72324183D01*
X168284165Y-72441584D01*
X168355756Y-72575521D01*
X168355757Y-72575524D01*
X168399844Y-72720858D01*
X168411000Y-72834128D01*
X168411000Y-73469872D01*
X168399844Y-73583142D01*
X168355757Y-73728475D01*
X168355756Y-73728479D01*
X168284165Y-73862416D01*
X168284164Y-73862417D01*
X168187817Y-73979817D01*
X168088268Y-74061514D01*
X168070415Y-74076165D01*
X167936478Y-74147756D01*
X167936475Y-74147757D01*
X167791141Y-74191844D01*
X167640000Y-74206730D01*
X167488858Y-74191844D01*
X167343524Y-74147757D01*
X167343521Y-74147756D01*
X167209584Y-74076165D01*
X167188531Y-74058887D01*
X167092183Y-73979817D01*
X166995836Y-73862416D01*
X166924245Y-73728479D01*
X166924244Y-73728478D01*
X166924243Y-73728475D01*
X166880156Y-73583141D01*
X166869000Y-73469871D01*
X166869000Y-72834128D01*
X166880156Y-72720858D01*
X166924243Y-72575524D01*
X166924243Y-72575523D01*
X166995837Y-72441582D01*
X167092184Y-72324183D01*
X167209585Y-72227835D01*
X167343522Y-72156244D01*
X167343525Y-72156243D01*
X167488859Y-72112156D01*
X167640000Y-72097270D01*
X167791142Y-72112156D01*
X167791142Y-72112156D01*
G37*
G36*
X142391142Y-72112156D02*
G01*
X142536476Y-72156243D01*
X142536479Y-72156244D01*
X142670416Y-72227835D01*
X142787817Y-72324183D01*
X142884165Y-72441584D01*
X142955756Y-72575521D01*
X142955757Y-72575524D01*
X142999844Y-72720858D01*
X143011000Y-72834128D01*
X143011000Y-73469872D01*
X142999844Y-73583142D01*
X142955757Y-73728475D01*
X142955756Y-73728479D01*
X142884165Y-73862416D01*
X142884164Y-73862417D01*
X142787817Y-73979817D01*
X142688268Y-74061514D01*
X142670415Y-74076165D01*
X142536478Y-74147756D01*
X142536475Y-74147757D01*
X142391141Y-74191844D01*
X142240000Y-74206730D01*
X142088858Y-74191844D01*
X141943524Y-74147757D01*
X141943521Y-74147756D01*
X141809584Y-74076165D01*
X141788531Y-74058887D01*
X141692183Y-73979817D01*
X141595836Y-73862416D01*
X141524245Y-73728479D01*
X141524244Y-73728478D01*
X141524243Y-73728475D01*
X141480156Y-73583141D01*
X141469000Y-73469871D01*
X141469000Y-72834128D01*
X141480156Y-72720858D01*
X141524243Y-72575524D01*
X141524243Y-72575523D01*
X141595837Y-72441582D01*
X141692184Y-72324183D01*
X141809585Y-72227835D01*
X141943522Y-72156244D01*
X141943525Y-72156243D01*
X142088859Y-72112156D01*
X142240000Y-72097270D01*
X142391142Y-72112156D01*
X142391142Y-72112156D01*
G37*
G36*
X175411142Y-72112156D02*
G01*
X175556476Y-72156243D01*
X175556479Y-72156244D01*
X175690416Y-72227835D01*
X175807817Y-72324183D01*
X175904165Y-72441584D01*
X175975756Y-72575521D01*
X175975757Y-72575524D01*
X176019844Y-72720858D01*
X176031000Y-72834128D01*
X176031000Y-73469872D01*
X176019844Y-73583142D01*
X175975757Y-73728475D01*
X175975756Y-73728479D01*
X175904165Y-73862416D01*
X175904164Y-73862417D01*
X175807817Y-73979817D01*
X175708268Y-74061514D01*
X175690415Y-74076165D01*
X175556478Y-74147756D01*
X175556475Y-74147757D01*
X175411141Y-74191844D01*
X175260000Y-74206730D01*
X175108858Y-74191844D01*
X174963524Y-74147757D01*
X174963521Y-74147756D01*
X174829584Y-74076165D01*
X174808531Y-74058887D01*
X174712183Y-73979817D01*
X174615836Y-73862416D01*
X174544245Y-73728479D01*
X174544244Y-73728478D01*
X174544243Y-73728475D01*
X174500156Y-73583141D01*
X174489000Y-73469871D01*
X174489000Y-72834128D01*
X174500156Y-72720858D01*
X174544243Y-72575524D01*
X174544243Y-72575523D01*
X174615837Y-72441582D01*
X174712184Y-72324183D01*
X174829585Y-72227835D01*
X174963522Y-72156244D01*
X174963525Y-72156243D01*
X175108859Y-72112156D01*
X175260000Y-72097270D01*
X175411142Y-72112156D01*
X175411142Y-72112156D01*
G37*
G36*
X144931142Y-72112156D02*
G01*
X145076476Y-72156243D01*
X145076479Y-72156244D01*
X145210416Y-72227835D01*
X145327817Y-72324183D01*
X145424165Y-72441584D01*
X145495756Y-72575521D01*
X145495757Y-72575524D01*
X145539844Y-72720858D01*
X145551000Y-72834128D01*
X145551000Y-73469872D01*
X145539844Y-73583142D01*
X145495757Y-73728475D01*
X145495756Y-73728479D01*
X145424165Y-73862416D01*
X145424164Y-73862417D01*
X145327817Y-73979817D01*
X145228268Y-74061514D01*
X145210415Y-74076165D01*
X145076478Y-74147756D01*
X145076475Y-74147757D01*
X144931141Y-74191844D01*
X144780000Y-74206730D01*
X144628858Y-74191844D01*
X144483524Y-74147757D01*
X144483521Y-74147756D01*
X144349584Y-74076165D01*
X144328531Y-74058887D01*
X144232183Y-73979817D01*
X144135836Y-73862416D01*
X144064245Y-73728479D01*
X144064244Y-73728478D01*
X144064243Y-73728475D01*
X144020156Y-73583141D01*
X144009000Y-73469871D01*
X144009000Y-72834128D01*
X144020156Y-72720858D01*
X144064243Y-72575524D01*
X144064243Y-72575523D01*
X144135837Y-72441582D01*
X144232184Y-72324183D01*
X144349585Y-72227835D01*
X144483522Y-72156244D01*
X144483525Y-72156243D01*
X144628859Y-72112156D01*
X144780000Y-72097270D01*
X144931142Y-72112156D01*
X144931142Y-72112156D01*
G37*
G36*
X172871142Y-72112156D02*
G01*
X173016476Y-72156243D01*
X173016479Y-72156244D01*
X173150416Y-72227835D01*
X173267817Y-72324183D01*
X173364165Y-72441584D01*
X173435756Y-72575521D01*
X173435757Y-72575524D01*
X173479844Y-72720858D01*
X173491000Y-72834128D01*
X173491000Y-73469872D01*
X173479844Y-73583142D01*
X173435757Y-73728475D01*
X173435756Y-73728479D01*
X173364165Y-73862416D01*
X173364164Y-73862417D01*
X173267817Y-73979817D01*
X173168268Y-74061514D01*
X173150415Y-74076165D01*
X173016478Y-74147756D01*
X173016475Y-74147757D01*
X172871141Y-74191844D01*
X172720000Y-74206730D01*
X172568858Y-74191844D01*
X172423524Y-74147757D01*
X172423521Y-74147756D01*
X172289584Y-74076165D01*
X172268531Y-74058887D01*
X172172183Y-73979817D01*
X172075836Y-73862416D01*
X172004245Y-73728479D01*
X172004244Y-73728478D01*
X172004243Y-73728475D01*
X171960156Y-73583141D01*
X171949000Y-73469871D01*
X171949000Y-72834128D01*
X171960156Y-72720858D01*
X172004243Y-72575524D01*
X172004243Y-72575523D01*
X172075837Y-72441582D01*
X172172184Y-72324183D01*
X172289585Y-72227835D01*
X172423522Y-72156244D01*
X172423525Y-72156243D01*
X172568859Y-72112156D01*
X172720000Y-72097270D01*
X172871142Y-72112156D01*
X172871142Y-72112156D01*
G37*
G36*
X165251142Y-72112156D02*
G01*
X165396476Y-72156243D01*
X165396479Y-72156244D01*
X165530416Y-72227835D01*
X165647817Y-72324183D01*
X165744165Y-72441584D01*
X165815756Y-72575521D01*
X165815757Y-72575524D01*
X165859844Y-72720858D01*
X165871000Y-72834128D01*
X165871000Y-73469872D01*
X165859844Y-73583142D01*
X165815757Y-73728475D01*
X165815756Y-73728479D01*
X165744165Y-73862416D01*
X165744164Y-73862417D01*
X165647817Y-73979817D01*
X165548268Y-74061514D01*
X165530415Y-74076165D01*
X165396478Y-74147756D01*
X165396475Y-74147757D01*
X165251141Y-74191844D01*
X165100000Y-74206730D01*
X164948858Y-74191844D01*
X164803524Y-74147757D01*
X164803521Y-74147756D01*
X164669584Y-74076165D01*
X164648531Y-74058887D01*
X164552183Y-73979817D01*
X164455836Y-73862416D01*
X164384245Y-73728479D01*
X164384244Y-73728478D01*
X164384243Y-73728475D01*
X164340156Y-73583141D01*
X164329000Y-73469871D01*
X164329000Y-72834128D01*
X164340156Y-72720858D01*
X164384243Y-72575524D01*
X164384243Y-72575523D01*
X164455837Y-72441582D01*
X164552184Y-72324183D01*
X164669585Y-72227835D01*
X164803522Y-72156244D01*
X164803525Y-72156243D01*
X164948859Y-72112156D01*
X165100000Y-72097270D01*
X165251142Y-72112156D01*
X165251142Y-72112156D01*
G37*
G36*
X188111142Y-72112156D02*
G01*
X188256476Y-72156243D01*
X188256479Y-72156244D01*
X188390416Y-72227835D01*
X188507817Y-72324183D01*
X188604165Y-72441584D01*
X188675756Y-72575521D01*
X188675757Y-72575524D01*
X188719844Y-72720858D01*
X188731000Y-72834128D01*
X188731000Y-73469872D01*
X188719844Y-73583142D01*
X188675757Y-73728475D01*
X188675756Y-73728479D01*
X188604165Y-73862416D01*
X188604164Y-73862417D01*
X188507817Y-73979817D01*
X188408268Y-74061514D01*
X188390415Y-74076165D01*
X188256478Y-74147756D01*
X188256475Y-74147757D01*
X188111141Y-74191844D01*
X187960000Y-74206730D01*
X187808858Y-74191844D01*
X187663524Y-74147757D01*
X187663521Y-74147756D01*
X187529584Y-74076165D01*
X187508531Y-74058887D01*
X187412183Y-73979817D01*
X187315836Y-73862416D01*
X187244245Y-73728479D01*
X187244244Y-73728478D01*
X187244243Y-73728475D01*
X187200156Y-73583141D01*
X187189000Y-73469871D01*
X187189000Y-72834128D01*
X187200156Y-72720858D01*
X187244243Y-72575524D01*
X187244243Y-72575523D01*
X187315837Y-72441582D01*
X187412184Y-72324183D01*
X187529585Y-72227835D01*
X187663522Y-72156244D01*
X187663525Y-72156243D01*
X187808859Y-72112156D01*
X187960000Y-72097270D01*
X188111142Y-72112156D01*
X188111142Y-72112156D01*
G37*
G36*
X147471142Y-72112156D02*
G01*
X147616476Y-72156243D01*
X147616479Y-72156244D01*
X147750416Y-72227835D01*
X147867817Y-72324183D01*
X147964165Y-72441584D01*
X148035756Y-72575521D01*
X148035757Y-72575524D01*
X148079844Y-72720858D01*
X148091000Y-72834128D01*
X148091000Y-73469872D01*
X148079844Y-73583142D01*
X148035757Y-73728475D01*
X148035756Y-73728479D01*
X147964165Y-73862416D01*
X147964164Y-73862417D01*
X147867817Y-73979817D01*
X147768268Y-74061514D01*
X147750415Y-74076165D01*
X147616478Y-74147756D01*
X147616475Y-74147757D01*
X147471141Y-74191844D01*
X147320000Y-74206730D01*
X147168858Y-74191844D01*
X147023524Y-74147757D01*
X147023521Y-74147756D01*
X146889584Y-74076165D01*
X146868531Y-74058887D01*
X146772183Y-73979817D01*
X146675836Y-73862416D01*
X146604245Y-73728479D01*
X146604244Y-73728478D01*
X146604243Y-73728475D01*
X146560156Y-73583141D01*
X146549000Y-73469871D01*
X146549000Y-72834128D01*
X146560156Y-72720858D01*
X146604243Y-72575524D01*
X146604243Y-72575523D01*
X146675837Y-72441582D01*
X146772184Y-72324183D01*
X146889585Y-72227835D01*
X147023522Y-72156244D01*
X147023525Y-72156243D01*
X147168859Y-72112156D01*
X147320000Y-72097270D01*
X147471142Y-72112156D01*
X147471142Y-72112156D01*
G37*
G36*
X150011142Y-72112156D02*
G01*
X150156476Y-72156243D01*
X150156479Y-72156244D01*
X150290416Y-72227835D01*
X150407817Y-72324183D01*
X150504165Y-72441584D01*
X150575756Y-72575521D01*
X150575757Y-72575524D01*
X150619844Y-72720858D01*
X150631000Y-72834128D01*
X150631000Y-73469872D01*
X150619844Y-73583142D01*
X150575757Y-73728475D01*
X150575756Y-73728479D01*
X150504165Y-73862416D01*
X150504164Y-73862417D01*
X150407817Y-73979817D01*
X150308268Y-74061514D01*
X150290415Y-74076165D01*
X150156478Y-74147756D01*
X150156475Y-74147757D01*
X150011141Y-74191844D01*
X149860000Y-74206730D01*
X149708858Y-74191844D01*
X149563524Y-74147757D01*
X149563521Y-74147756D01*
X149429584Y-74076165D01*
X149408531Y-74058887D01*
X149312183Y-73979817D01*
X149215836Y-73862416D01*
X149144245Y-73728479D01*
X149144244Y-73728478D01*
X149144243Y-73728475D01*
X149100156Y-73583141D01*
X149089000Y-73469871D01*
X149089000Y-72834128D01*
X149100156Y-72720858D01*
X149144243Y-72575524D01*
X149144243Y-72575523D01*
X149215837Y-72441582D01*
X149312184Y-72324183D01*
X149429585Y-72227835D01*
X149563522Y-72156244D01*
X149563525Y-72156243D01*
X149708859Y-72112156D01*
X149860000Y-72097270D01*
X150011142Y-72112156D01*
X150011142Y-72112156D01*
G37*
G36*
X162711142Y-72112156D02*
G01*
X162856476Y-72156243D01*
X162856479Y-72156244D01*
X162990416Y-72227835D01*
X163107817Y-72324183D01*
X163204165Y-72441584D01*
X163275756Y-72575521D01*
X163275757Y-72575524D01*
X163319844Y-72720858D01*
X163331000Y-72834128D01*
X163331000Y-73469872D01*
X163319844Y-73583142D01*
X163275757Y-73728475D01*
X163275756Y-73728479D01*
X163204165Y-73862416D01*
X163204164Y-73862417D01*
X163107817Y-73979817D01*
X163008268Y-74061514D01*
X162990415Y-74076165D01*
X162856478Y-74147756D01*
X162856475Y-74147757D01*
X162711141Y-74191844D01*
X162560000Y-74206730D01*
X162408858Y-74191844D01*
X162263524Y-74147757D01*
X162263521Y-74147756D01*
X162129584Y-74076165D01*
X162108531Y-74058887D01*
X162012183Y-73979817D01*
X161915836Y-73862416D01*
X161844245Y-73728479D01*
X161844244Y-73728478D01*
X161844243Y-73728475D01*
X161800156Y-73583141D01*
X161789000Y-73469871D01*
X161789000Y-72834128D01*
X161800156Y-72720858D01*
X161844243Y-72575524D01*
X161844243Y-72575523D01*
X161915837Y-72441582D01*
X162012184Y-72324183D01*
X162129585Y-72227835D01*
X162263522Y-72156244D01*
X162263525Y-72156243D01*
X162408859Y-72112156D01*
X162560000Y-72097270D01*
X162711142Y-72112156D01*
X162711142Y-72112156D01*
G37*
G36*
X152551142Y-72112156D02*
G01*
X152696476Y-72156243D01*
X152696479Y-72156244D01*
X152830416Y-72227835D01*
X152947817Y-72324183D01*
X153044165Y-72441584D01*
X153115756Y-72575521D01*
X153115757Y-72575524D01*
X153159844Y-72720858D01*
X153171000Y-72834128D01*
X153171000Y-73469872D01*
X153159844Y-73583142D01*
X153115757Y-73728475D01*
X153115756Y-73728479D01*
X153044165Y-73862416D01*
X153044164Y-73862417D01*
X152947817Y-73979817D01*
X152848268Y-74061514D01*
X152830415Y-74076165D01*
X152696478Y-74147756D01*
X152696475Y-74147757D01*
X152551141Y-74191844D01*
X152400000Y-74206730D01*
X152248858Y-74191844D01*
X152103524Y-74147757D01*
X152103521Y-74147756D01*
X151969584Y-74076165D01*
X151948531Y-74058887D01*
X151852183Y-73979817D01*
X151755836Y-73862416D01*
X151684245Y-73728479D01*
X151684244Y-73728478D01*
X151684243Y-73728475D01*
X151640156Y-73583141D01*
X151629000Y-73469871D01*
X151629000Y-72834128D01*
X151640156Y-72720858D01*
X151684243Y-72575524D01*
X151684243Y-72575523D01*
X151755837Y-72441582D01*
X151852184Y-72324183D01*
X151969585Y-72227835D01*
X152103522Y-72156244D01*
X152103525Y-72156243D01*
X152248859Y-72112156D01*
X152400000Y-72097270D01*
X152551142Y-72112156D01*
X152551142Y-72112156D01*
G37*
G36*
X160171142Y-72112156D02*
G01*
X160316476Y-72156243D01*
X160316479Y-72156244D01*
X160450416Y-72227835D01*
X160567817Y-72324183D01*
X160664165Y-72441584D01*
X160735756Y-72575521D01*
X160735757Y-72575524D01*
X160779844Y-72720858D01*
X160791000Y-72834128D01*
X160791000Y-73469872D01*
X160779844Y-73583142D01*
X160735757Y-73728475D01*
X160735756Y-73728479D01*
X160664165Y-73862416D01*
X160664164Y-73862417D01*
X160567817Y-73979817D01*
X160468268Y-74061514D01*
X160450415Y-74076165D01*
X160316478Y-74147756D01*
X160316475Y-74147757D01*
X160171141Y-74191844D01*
X160020000Y-74206730D01*
X159868858Y-74191844D01*
X159723524Y-74147757D01*
X159723521Y-74147756D01*
X159589584Y-74076165D01*
X159568531Y-74058887D01*
X159472183Y-73979817D01*
X159375836Y-73862416D01*
X159304245Y-73728479D01*
X159304244Y-73728478D01*
X159304243Y-73728475D01*
X159260156Y-73583141D01*
X159249000Y-73469871D01*
X159249000Y-72834128D01*
X159260156Y-72720858D01*
X159304243Y-72575524D01*
X159304243Y-72575523D01*
X159375837Y-72441582D01*
X159472184Y-72324183D01*
X159589585Y-72227835D01*
X159723522Y-72156244D01*
X159723525Y-72156243D01*
X159868859Y-72112156D01*
X160020000Y-72097270D01*
X160171142Y-72112156D01*
X160171142Y-72112156D01*
G37*
G36*
X155091142Y-72112156D02*
G01*
X155236476Y-72156243D01*
X155236479Y-72156244D01*
X155370416Y-72227835D01*
X155487817Y-72324183D01*
X155584165Y-72441584D01*
X155655756Y-72575521D01*
X155655757Y-72575524D01*
X155699844Y-72720858D01*
X155711000Y-72834128D01*
X155711000Y-73469872D01*
X155699844Y-73583142D01*
X155655757Y-73728475D01*
X155655756Y-73728479D01*
X155584165Y-73862416D01*
X155584164Y-73862417D01*
X155487817Y-73979817D01*
X155388268Y-74061514D01*
X155370415Y-74076165D01*
X155236478Y-74147756D01*
X155236475Y-74147757D01*
X155091141Y-74191844D01*
X154940000Y-74206730D01*
X154788858Y-74191844D01*
X154643524Y-74147757D01*
X154643521Y-74147756D01*
X154509584Y-74076165D01*
X154488531Y-74058887D01*
X154392183Y-73979817D01*
X154295836Y-73862416D01*
X154224245Y-73728479D01*
X154224244Y-73728478D01*
X154224243Y-73728475D01*
X154180156Y-73583141D01*
X154169000Y-73469871D01*
X154169000Y-72834128D01*
X154180156Y-72720858D01*
X154224243Y-72575524D01*
X154224243Y-72575523D01*
X154295837Y-72441582D01*
X154392184Y-72324183D01*
X154509585Y-72227835D01*
X154643522Y-72156244D01*
X154643525Y-72156243D01*
X154788859Y-72112156D01*
X154940000Y-72097270D01*
X155091142Y-72112156D01*
X155091142Y-72112156D01*
G37*
G36*
X157631142Y-72112156D02*
G01*
X157776476Y-72156243D01*
X157776479Y-72156244D01*
X157910416Y-72227835D01*
X158027817Y-72324183D01*
X158124165Y-72441584D01*
X158195756Y-72575521D01*
X158195757Y-72575524D01*
X158239844Y-72720858D01*
X158251000Y-72834128D01*
X158251000Y-73469872D01*
X158239844Y-73583142D01*
X158195757Y-73728475D01*
X158195756Y-73728479D01*
X158124165Y-73862416D01*
X158124164Y-73862417D01*
X158027817Y-73979817D01*
X157928268Y-74061514D01*
X157910415Y-74076165D01*
X157776478Y-74147756D01*
X157776475Y-74147757D01*
X157631141Y-74191844D01*
X157480000Y-74206730D01*
X157328858Y-74191844D01*
X157183524Y-74147757D01*
X157183521Y-74147756D01*
X157049584Y-74076165D01*
X157028531Y-74058887D01*
X156932183Y-73979817D01*
X156835836Y-73862416D01*
X156764245Y-73728479D01*
X156764244Y-73728478D01*
X156764243Y-73728475D01*
X156720156Y-73583141D01*
X156709000Y-73469871D01*
X156709000Y-72834128D01*
X156720156Y-72720858D01*
X156764243Y-72575524D01*
X156764243Y-72575523D01*
X156835837Y-72441582D01*
X156932184Y-72324183D01*
X157049585Y-72227835D01*
X157183522Y-72156244D01*
X157183525Y-72156243D01*
X157328859Y-72112156D01*
X157480000Y-72097270D01*
X157631142Y-72112156D01*
X157631142Y-72112156D01*
G37*
G36*
X191271000Y-74203000D02*
G01*
X189729000Y-74203000D01*
X189729000Y-72101000D01*
X191271000Y-72101000D01*
X191271000Y-74203000D01*
X191271000Y-74203000D01*
G37*
G36*
X145976257Y-61204299D02*
G01*
X146082580Y-61225448D01*
X146383043Y-61349904D01*
X146653452Y-61530586D01*
X146883416Y-61760550D01*
X147064098Y-62030959D01*
X147064099Y-62030961D01*
X147188554Y-62331423D01*
X147252001Y-62650390D01*
X147252001Y-62975612D01*
X147188554Y-63294579D01*
X147071513Y-63577143D01*
X147064098Y-63595043D01*
X146883416Y-63865452D01*
X146653452Y-64095416D01*
X146383043Y-64276098D01*
X146082580Y-64400554D01*
X145976257Y-64421703D01*
X145763612Y-64464001D01*
X145438390Y-64464001D01*
X145225745Y-64421703D01*
X145119422Y-64400554D01*
X144818959Y-64276098D01*
X144548550Y-64095416D01*
X144318586Y-63865452D01*
X144137904Y-63595043D01*
X144130490Y-63577143D01*
X144013448Y-63294579D01*
X143950001Y-62975612D01*
X143950001Y-62650390D01*
X144013448Y-62331423D01*
X144137903Y-62030961D01*
X144137904Y-62030959D01*
X144318586Y-61760550D01*
X144548550Y-61530586D01*
X144818959Y-61349904D01*
X145119422Y-61225448D01*
X145225745Y-61204299D01*
X145438390Y-61162001D01*
X145763612Y-61162001D01*
X145976257Y-61204299D01*
X145976257Y-61204299D01*
G37*
G36*
X162036295Y-61911634D02*
G01*
X162208696Y-61963932D01*
X162367584Y-62048859D01*
X162506850Y-62163152D01*
X162621143Y-62302418D01*
X162706070Y-62461306D01*
X162758368Y-62633707D01*
X162776026Y-62813001D01*
X162758368Y-62992295D01*
X162706070Y-63164696D01*
X162621143Y-63323584D01*
X162506850Y-63462850D01*
X162367584Y-63577143D01*
X162208696Y-63662070D01*
X162036295Y-63714368D01*
X161901932Y-63727601D01*
X161812070Y-63727601D01*
X161677707Y-63714368D01*
X161505306Y-63662070D01*
X161346418Y-63577143D01*
X161207152Y-63462850D01*
X161092859Y-63323584D01*
X161007932Y-63164696D01*
X160955634Y-62992295D01*
X160937976Y-62813001D01*
X160955634Y-62633707D01*
X161007932Y-62461306D01*
X161092859Y-62302418D01*
X161207152Y-62163152D01*
X161346418Y-62048859D01*
X161505306Y-61963932D01*
X161677707Y-61911634D01*
X161812070Y-61898401D01*
X161901932Y-61898401D01*
X162036295Y-61911634D01*
X162036295Y-61911634D01*
G37*
G36*
X164576295Y-61911634D02*
G01*
X164748696Y-61963932D01*
X164907584Y-62048859D01*
X165046850Y-62163152D01*
X165161143Y-62302418D01*
X165246070Y-62461306D01*
X165298368Y-62633707D01*
X165316026Y-62813001D01*
X165298368Y-62992295D01*
X165246070Y-63164696D01*
X165161143Y-63323584D01*
X165046850Y-63462850D01*
X164907584Y-63577143D01*
X164748696Y-63662070D01*
X164576295Y-63714368D01*
X164441932Y-63727601D01*
X164352070Y-63727601D01*
X164217707Y-63714368D01*
X164045306Y-63662070D01*
X163886418Y-63577143D01*
X163747152Y-63462850D01*
X163632859Y-63323584D01*
X163547932Y-63164696D01*
X163495634Y-62992295D01*
X163477976Y-62813001D01*
X163495634Y-62633707D01*
X163547932Y-62461306D01*
X163632859Y-62302418D01*
X163747152Y-62163152D01*
X163886418Y-62048859D01*
X164045306Y-61963932D01*
X164217707Y-61911634D01*
X164352070Y-61898401D01*
X164441932Y-61898401D01*
X164576295Y-61911634D01*
X164576295Y-61911634D01*
G37*
G36*
X154416295Y-61911634D02*
G01*
X154588696Y-61963932D01*
X154747584Y-62048859D01*
X154886850Y-62163152D01*
X155001143Y-62302418D01*
X155086070Y-62461306D01*
X155138368Y-62633707D01*
X155156026Y-62813001D01*
X155138368Y-62992295D01*
X155086070Y-63164696D01*
X155001143Y-63323584D01*
X154886850Y-63462850D01*
X154747584Y-63577143D01*
X154588696Y-63662070D01*
X154416295Y-63714368D01*
X154281932Y-63727601D01*
X154192070Y-63727601D01*
X154057707Y-63714368D01*
X153885306Y-63662070D01*
X153726418Y-63577143D01*
X153587152Y-63462850D01*
X153472859Y-63323584D01*
X153387932Y-63164696D01*
X153335634Y-62992295D01*
X153317976Y-62813001D01*
X153335634Y-62633707D01*
X153387932Y-62461306D01*
X153472859Y-62302418D01*
X153587152Y-62163152D01*
X153726418Y-62048859D01*
X153885306Y-61963932D01*
X154057707Y-61911634D01*
X154192070Y-61898401D01*
X154281932Y-61898401D01*
X154416295Y-61911634D01*
X154416295Y-61911634D01*
G37*
G36*
X194040295Y-61911634D02*
G01*
X194212696Y-61963932D01*
X194371584Y-62048859D01*
X194510850Y-62163152D01*
X194625143Y-62302418D01*
X194710070Y-62461306D01*
X194762368Y-62633707D01*
X194780026Y-62813001D01*
X194762368Y-62992295D01*
X194710070Y-63164696D01*
X194625143Y-63323584D01*
X194510850Y-63462850D01*
X194371584Y-63577143D01*
X194212696Y-63662070D01*
X194040295Y-63714368D01*
X193905932Y-63727601D01*
X193816070Y-63727601D01*
X193681707Y-63714368D01*
X193509306Y-63662070D01*
X193350418Y-63577143D01*
X193211152Y-63462850D01*
X193096859Y-63323584D01*
X193011932Y-63164696D01*
X192959634Y-62992295D01*
X192941976Y-62813001D01*
X192959634Y-62633707D01*
X193011932Y-62461306D01*
X193096859Y-62302418D01*
X193211152Y-62163152D01*
X193350418Y-62048859D01*
X193509306Y-61963932D01*
X193681707Y-61911634D01*
X193816070Y-61898401D01*
X193905932Y-61898401D01*
X194040295Y-61911634D01*
X194040295Y-61911634D01*
G37*
G36*
X191500295Y-61911634D02*
G01*
X191672696Y-61963932D01*
X191831584Y-62048859D01*
X191970850Y-62163152D01*
X192085143Y-62302418D01*
X192170070Y-62461306D01*
X192222368Y-62633707D01*
X192240026Y-62813001D01*
X192222368Y-62992295D01*
X192170070Y-63164696D01*
X192085143Y-63323584D01*
X191970850Y-63462850D01*
X191831584Y-63577143D01*
X191672696Y-63662070D01*
X191500295Y-63714368D01*
X191365932Y-63727601D01*
X191276070Y-63727601D01*
X191141707Y-63714368D01*
X190969306Y-63662070D01*
X190810418Y-63577143D01*
X190671152Y-63462850D01*
X190556859Y-63323584D01*
X190471932Y-63164696D01*
X190419634Y-62992295D01*
X190401976Y-62813001D01*
X190419634Y-62633707D01*
X190471932Y-62461306D01*
X190556859Y-62302418D01*
X190671152Y-62163152D01*
X190810418Y-62048859D01*
X190969306Y-61963932D01*
X191141707Y-61911634D01*
X191276070Y-61898401D01*
X191365932Y-61898401D01*
X191500295Y-61911634D01*
X191500295Y-61911634D01*
G37*
G36*
X188960295Y-61911634D02*
G01*
X189132696Y-61963932D01*
X189291584Y-62048859D01*
X189430850Y-62163152D01*
X189545143Y-62302418D01*
X189630070Y-62461306D01*
X189682368Y-62633707D01*
X189700026Y-62813001D01*
X189682368Y-62992295D01*
X189630070Y-63164696D01*
X189545143Y-63323584D01*
X189430850Y-63462850D01*
X189291584Y-63577143D01*
X189132696Y-63662070D01*
X188960295Y-63714368D01*
X188825932Y-63727601D01*
X188736070Y-63727601D01*
X188601707Y-63714368D01*
X188429306Y-63662070D01*
X188270418Y-63577143D01*
X188131152Y-63462850D01*
X188016859Y-63323584D01*
X187931932Y-63164696D01*
X187879634Y-62992295D01*
X187861976Y-62813001D01*
X187879634Y-62633707D01*
X187931932Y-62461306D01*
X188016859Y-62302418D01*
X188131152Y-62163152D01*
X188270418Y-62048859D01*
X188429306Y-61963932D01*
X188601707Y-61911634D01*
X188736070Y-61898401D01*
X188825932Y-61898401D01*
X188960295Y-61911634D01*
X188960295Y-61911634D01*
G37*
G36*
X186420295Y-61911634D02*
G01*
X186592696Y-61963932D01*
X186751584Y-62048859D01*
X186890850Y-62163152D01*
X187005143Y-62302418D01*
X187090070Y-62461306D01*
X187142368Y-62633707D01*
X187160026Y-62813001D01*
X187142368Y-62992295D01*
X187090070Y-63164696D01*
X187005143Y-63323584D01*
X186890850Y-63462850D01*
X186751584Y-63577143D01*
X186592696Y-63662070D01*
X186420295Y-63714368D01*
X186285932Y-63727601D01*
X186196070Y-63727601D01*
X186061707Y-63714368D01*
X185889306Y-63662070D01*
X185730418Y-63577143D01*
X185591152Y-63462850D01*
X185476859Y-63323584D01*
X185391932Y-63164696D01*
X185339634Y-62992295D01*
X185321976Y-62813001D01*
X185339634Y-62633707D01*
X185391932Y-62461306D01*
X185476859Y-62302418D01*
X185591152Y-62163152D01*
X185730418Y-62048859D01*
X185889306Y-61963932D01*
X186061707Y-61911634D01*
X186196070Y-61898401D01*
X186285932Y-61898401D01*
X186420295Y-61911634D01*
X186420295Y-61911634D01*
G37*
G36*
X183880295Y-61911634D02*
G01*
X184052696Y-61963932D01*
X184211584Y-62048859D01*
X184350850Y-62163152D01*
X184465143Y-62302418D01*
X184550070Y-62461306D01*
X184602368Y-62633707D01*
X184620026Y-62813001D01*
X184602368Y-62992295D01*
X184550070Y-63164696D01*
X184465143Y-63323584D01*
X184350850Y-63462850D01*
X184211584Y-63577143D01*
X184052696Y-63662070D01*
X183880295Y-63714368D01*
X183745932Y-63727601D01*
X183656070Y-63727601D01*
X183521707Y-63714368D01*
X183349306Y-63662070D01*
X183190418Y-63577143D01*
X183051152Y-63462850D01*
X182936859Y-63323584D01*
X182851932Y-63164696D01*
X182799634Y-62992295D01*
X182781976Y-62813001D01*
X182799634Y-62633707D01*
X182851932Y-62461306D01*
X182936859Y-62302418D01*
X183051152Y-62163152D01*
X183190418Y-62048859D01*
X183349306Y-61963932D01*
X183521707Y-61911634D01*
X183656070Y-61898401D01*
X183745932Y-61898401D01*
X183880295Y-61911634D01*
X183880295Y-61911634D01*
G37*
G36*
X181340295Y-61911634D02*
G01*
X181512696Y-61963932D01*
X181671584Y-62048859D01*
X181810850Y-62163152D01*
X181925143Y-62302418D01*
X182010070Y-62461306D01*
X182062368Y-62633707D01*
X182080026Y-62813001D01*
X182062368Y-62992295D01*
X182010070Y-63164696D01*
X181925143Y-63323584D01*
X181810850Y-63462850D01*
X181671584Y-63577143D01*
X181512696Y-63662070D01*
X181340295Y-63714368D01*
X181205932Y-63727601D01*
X181116070Y-63727601D01*
X180981707Y-63714368D01*
X180809306Y-63662070D01*
X180650418Y-63577143D01*
X180511152Y-63462850D01*
X180396859Y-63323584D01*
X180311932Y-63164696D01*
X180259634Y-62992295D01*
X180241976Y-62813001D01*
X180259634Y-62633707D01*
X180311932Y-62461306D01*
X180396859Y-62302418D01*
X180511152Y-62163152D01*
X180650418Y-62048859D01*
X180809306Y-61963932D01*
X180981707Y-61911634D01*
X181116070Y-61898401D01*
X181205932Y-61898401D01*
X181340295Y-61911634D01*
X181340295Y-61911634D01*
G37*
G36*
X178800295Y-61911634D02*
G01*
X178972696Y-61963932D01*
X179131584Y-62048859D01*
X179270850Y-62163152D01*
X179385143Y-62302418D01*
X179470070Y-62461306D01*
X179522368Y-62633707D01*
X179540026Y-62813001D01*
X179522368Y-62992295D01*
X179470070Y-63164696D01*
X179385143Y-63323584D01*
X179270850Y-63462850D01*
X179131584Y-63577143D01*
X178972696Y-63662070D01*
X178800295Y-63714368D01*
X178665932Y-63727601D01*
X178576070Y-63727601D01*
X178441707Y-63714368D01*
X178269306Y-63662070D01*
X178110418Y-63577143D01*
X177971152Y-63462850D01*
X177856859Y-63323584D01*
X177771932Y-63164696D01*
X177719634Y-62992295D01*
X177701976Y-62813001D01*
X177719634Y-62633707D01*
X177771932Y-62461306D01*
X177856859Y-62302418D01*
X177971152Y-62163152D01*
X178110418Y-62048859D01*
X178269306Y-61963932D01*
X178441707Y-61911634D01*
X178576070Y-61898401D01*
X178665932Y-61898401D01*
X178800295Y-61911634D01*
X178800295Y-61911634D01*
G37*
G36*
X176260295Y-61911634D02*
G01*
X176432696Y-61963932D01*
X176591584Y-62048859D01*
X176730850Y-62163152D01*
X176845143Y-62302418D01*
X176930070Y-62461306D01*
X176982368Y-62633707D01*
X177000026Y-62813001D01*
X176982368Y-62992295D01*
X176930070Y-63164696D01*
X176845143Y-63323584D01*
X176730850Y-63462850D01*
X176591584Y-63577143D01*
X176432696Y-63662070D01*
X176260295Y-63714368D01*
X176125932Y-63727601D01*
X176036070Y-63727601D01*
X175901707Y-63714368D01*
X175729306Y-63662070D01*
X175570418Y-63577143D01*
X175431152Y-63462850D01*
X175316859Y-63323584D01*
X175231932Y-63164696D01*
X175179634Y-62992295D01*
X175161976Y-62813001D01*
X175179634Y-62633707D01*
X175231932Y-62461306D01*
X175316859Y-62302418D01*
X175431152Y-62163152D01*
X175570418Y-62048859D01*
X175729306Y-61963932D01*
X175901707Y-61911634D01*
X176036070Y-61898401D01*
X176125932Y-61898401D01*
X176260295Y-61911634D01*
X176260295Y-61911634D01*
G37*
G36*
X156956295Y-61911634D02*
G01*
X157128696Y-61963932D01*
X157287584Y-62048859D01*
X157426850Y-62163152D01*
X157541143Y-62302418D01*
X157626070Y-62461306D01*
X157678368Y-62633707D01*
X157696026Y-62813001D01*
X157678368Y-62992295D01*
X157626070Y-63164696D01*
X157541143Y-63323584D01*
X157426850Y-63462850D01*
X157287584Y-63577143D01*
X157128696Y-63662070D01*
X156956295Y-63714368D01*
X156821932Y-63727601D01*
X156732070Y-63727601D01*
X156597707Y-63714368D01*
X156425306Y-63662070D01*
X156266418Y-63577143D01*
X156127152Y-63462850D01*
X156012859Y-63323584D01*
X155927932Y-63164696D01*
X155875634Y-62992295D01*
X155857976Y-62813001D01*
X155875634Y-62633707D01*
X155927932Y-62461306D01*
X156012859Y-62302418D01*
X156127152Y-62163152D01*
X156266418Y-62048859D01*
X156425306Y-61963932D01*
X156597707Y-61911634D01*
X156732070Y-61898401D01*
X156821932Y-61898401D01*
X156956295Y-61911634D01*
X156956295Y-61911634D01*
G37*
G36*
X172196295Y-61911634D02*
G01*
X172368696Y-61963932D01*
X172527584Y-62048859D01*
X172666850Y-62163152D01*
X172781143Y-62302418D01*
X172866070Y-62461306D01*
X172918368Y-62633707D01*
X172936026Y-62813001D01*
X172918368Y-62992295D01*
X172866070Y-63164696D01*
X172781143Y-63323584D01*
X172666850Y-63462850D01*
X172527584Y-63577143D01*
X172368696Y-63662070D01*
X172196295Y-63714368D01*
X172061932Y-63727601D01*
X171972070Y-63727601D01*
X171837707Y-63714368D01*
X171665306Y-63662070D01*
X171506418Y-63577143D01*
X171367152Y-63462850D01*
X171252859Y-63323584D01*
X171167932Y-63164696D01*
X171115634Y-62992295D01*
X171097976Y-62813001D01*
X171115634Y-62633707D01*
X171167932Y-62461306D01*
X171252859Y-62302418D01*
X171367152Y-62163152D01*
X171506418Y-62048859D01*
X171665306Y-61963932D01*
X171837707Y-61911634D01*
X171972070Y-61898401D01*
X172061932Y-61898401D01*
X172196295Y-61911634D01*
X172196295Y-61911634D01*
G37*
G36*
X169656295Y-61911634D02*
G01*
X169828696Y-61963932D01*
X169987584Y-62048859D01*
X170126850Y-62163152D01*
X170241143Y-62302418D01*
X170326070Y-62461306D01*
X170378368Y-62633707D01*
X170396026Y-62813001D01*
X170378368Y-62992295D01*
X170326070Y-63164696D01*
X170241143Y-63323584D01*
X170126850Y-63462850D01*
X169987584Y-63577143D01*
X169828696Y-63662070D01*
X169656295Y-63714368D01*
X169521932Y-63727601D01*
X169432070Y-63727601D01*
X169297707Y-63714368D01*
X169125306Y-63662070D01*
X168966418Y-63577143D01*
X168827152Y-63462850D01*
X168712859Y-63323584D01*
X168627932Y-63164696D01*
X168575634Y-62992295D01*
X168557976Y-62813001D01*
X168575634Y-62633707D01*
X168627932Y-62461306D01*
X168712859Y-62302418D01*
X168827152Y-62163152D01*
X168966418Y-62048859D01*
X169125306Y-61963932D01*
X169297707Y-61911634D01*
X169432070Y-61898401D01*
X169521932Y-61898401D01*
X169656295Y-61911634D01*
X169656295Y-61911634D01*
G37*
G36*
X167116295Y-61911634D02*
G01*
X167288696Y-61963932D01*
X167447584Y-62048859D01*
X167586850Y-62163152D01*
X167701143Y-62302418D01*
X167786070Y-62461306D01*
X167838368Y-62633707D01*
X167856026Y-62813001D01*
X167838368Y-62992295D01*
X167786070Y-63164696D01*
X167701143Y-63323584D01*
X167586850Y-63462850D01*
X167447584Y-63577143D01*
X167288696Y-63662070D01*
X167116295Y-63714368D01*
X166981932Y-63727601D01*
X166892070Y-63727601D01*
X166757707Y-63714368D01*
X166585306Y-63662070D01*
X166426418Y-63577143D01*
X166287152Y-63462850D01*
X166172859Y-63323584D01*
X166087932Y-63164696D01*
X166035634Y-62992295D01*
X166017976Y-62813001D01*
X166035634Y-62633707D01*
X166087932Y-62461306D01*
X166172859Y-62302418D01*
X166287152Y-62163152D01*
X166426418Y-62048859D01*
X166585306Y-61963932D01*
X166757707Y-61911634D01*
X166892070Y-61898401D01*
X166981932Y-61898401D01*
X167116295Y-61911634D01*
X167116295Y-61911634D01*
G37*
G36*
X149336295Y-61911634D02*
G01*
X149508696Y-61963932D01*
X149667584Y-62048859D01*
X149806850Y-62163152D01*
X149921143Y-62302418D01*
X150006070Y-62461306D01*
X150058368Y-62633707D01*
X150076026Y-62813001D01*
X150058368Y-62992295D01*
X150006070Y-63164696D01*
X149921143Y-63323584D01*
X149806850Y-63462850D01*
X149667584Y-63577143D01*
X149508696Y-63662070D01*
X149336295Y-63714368D01*
X149201932Y-63727601D01*
X149112070Y-63727601D01*
X148977707Y-63714368D01*
X148805306Y-63662070D01*
X148646418Y-63577143D01*
X148507152Y-63462850D01*
X148392859Y-63323584D01*
X148307932Y-63164696D01*
X148255634Y-62992295D01*
X148237976Y-62813001D01*
X148255634Y-62633707D01*
X148307932Y-62461306D01*
X148392859Y-62302418D01*
X148507152Y-62163152D01*
X148646418Y-62048859D01*
X148805306Y-61963932D01*
X148977707Y-61911634D01*
X149112070Y-61898401D01*
X149201932Y-61898401D01*
X149336295Y-61911634D01*
X149336295Y-61911634D01*
G37*
G36*
X151876295Y-61911634D02*
G01*
X152048696Y-61963932D01*
X152207584Y-62048859D01*
X152346850Y-62163152D01*
X152461143Y-62302418D01*
X152546070Y-62461306D01*
X152598368Y-62633707D01*
X152616026Y-62813001D01*
X152598368Y-62992295D01*
X152546070Y-63164696D01*
X152461143Y-63323584D01*
X152346850Y-63462850D01*
X152207584Y-63577143D01*
X152048696Y-63662070D01*
X151876295Y-63714368D01*
X151741932Y-63727601D01*
X151652070Y-63727601D01*
X151517707Y-63714368D01*
X151345306Y-63662070D01*
X151186418Y-63577143D01*
X151047152Y-63462850D01*
X150932859Y-63323584D01*
X150847932Y-63164696D01*
X150795634Y-62992295D01*
X150777976Y-62813001D01*
X150795634Y-62633707D01*
X150847932Y-62461306D01*
X150932859Y-62302418D01*
X151047152Y-62163152D01*
X151186418Y-62048859D01*
X151345306Y-61963932D01*
X151517707Y-61911634D01*
X151652070Y-61898401D01*
X151741932Y-61898401D01*
X151876295Y-61911634D01*
X151876295Y-61911634D01*
G37*
G36*
X159496295Y-61911634D02*
G01*
X159668696Y-61963932D01*
X159827584Y-62048859D01*
X159966850Y-62163152D01*
X160081143Y-62302418D01*
X160166070Y-62461306D01*
X160218368Y-62633707D01*
X160236026Y-62813001D01*
X160218368Y-62992295D01*
X160166070Y-63164696D01*
X160081143Y-63323584D01*
X159966850Y-63462850D01*
X159827584Y-63577143D01*
X159668696Y-63662070D01*
X159496295Y-63714368D01*
X159361932Y-63727601D01*
X159272070Y-63727601D01*
X159137707Y-63714368D01*
X158965306Y-63662070D01*
X158806418Y-63577143D01*
X158667152Y-63462850D01*
X158552859Y-63323584D01*
X158467932Y-63164696D01*
X158415634Y-62992295D01*
X158397976Y-62813001D01*
X158415634Y-62633707D01*
X158467932Y-62461306D01*
X158552859Y-62302418D01*
X158667152Y-62163152D01*
X158806418Y-62048859D01*
X158965306Y-61963932D01*
X159137707Y-61911634D01*
X159272070Y-61898401D01*
X159361932Y-61898401D01*
X159496295Y-61911634D01*
X159496295Y-61911634D01*
G37*
M02*
